<?xml version="1.0" encoding="utf-8"?>
<!-- Generator: Adobe Illustrator 18.1.0, SVG Export Plug-In . SVG Version: 6.00 Build 0)  -->
<svg version="1.1" xmlns="http://www.w3.org/2000/svg" xmlns:xlink="http://www.w3.org/1999/xlink" x="0px" y="0px"
	 viewBox="0 0 31.7 20.5" enable-background="new 0 0 31.7 20.5" xml:space="preserve">
<g id="background">
</g>
<g id="sidebar">
	<path fill="#FFFFFF" d="M21.5,4.8H10.1c-2.2,0-4.1,2-4.1,4.2v1.5c0,1.7,1.1,3.2,2.6,3.8L8.7,17l4.1-2.3h8.7c2.2,0,4.5-2.1,4.5-4.3
		V8.9C26.1,6.7,23.7,4.8,21.5,4.8z M11.5,11.2c-0.8,0-1.4-0.6-1.4-1.4c0-0.8,0.6-1.4,1.4-1.4C12.3,8.3,13,9,13,9.7
		C13,10.5,12.3,11.2,11.5,11.2z M16.2,11.2c-0.8,0-1.4-0.6-1.4-1.4c0-0.8,0.6-1.4,1.4-1.4c0.8,0,1.4,0.6,1.4,1.4
		C17.6,10.5,16.9,11.2,16.2,11.2z M20.6,11.2c-0.8,0-1.4-0.6-1.4-1.4c0-0.8,0.6-1.4,1.4-1.4C21.4,8.3,22,9,22,9.7
		C22,10.5,21.4,11.2,20.6,11.2z"/>
</g>
<g id="text">
</g>
</svg>
