<?xml version="1.0" encoding="utf-8"?>
<!-- Generator: Adobe Illustrator 18.1.0, SVG Export Plug-In . SVG Version: 6.00 Build 0)  -->
<svg version="1.1" xmlns="http://www.w3.org/2000/svg" xmlns:xlink="http://www.w3.org/1999/xlink" x="0px" y="0px"
	 viewBox="0 0 117.3 51" enable-background="new 0 0 117.3 51" xml:space="preserve">
<g id="background">
</g>
<g id="sidebar">
	<g>
		<defs>
			<rect id="SVGID_11_" x="0" y="2.3" width="117.7" height="51.3"/>
		</defs>
		<clipPath id="SVGID_2_">
			<use xlink:href="#SVGID_11_"  overflow="visible"/>
		</clipPath>
		<path clip-path="url(#SVGID_2_)" fill="#8DCCDB" d="M117.2,51.5l-12.2-5.2l-6.9,0.6l-8.2-5L84.3,44l-12.8-5.2l-7.7,1.1l-7.5,2.4
			l-13-6.1l-9.4-3l-5.7-4.6l-12.4,2.8L10,28.6l-4.7,5.3L-3.1,35L-8,40.9L-8.7,53l124.5,7.5C115.8,60.5,117.2,51.2,117.2,51.5z"/>
		<polygon clip-path="url(#SVGID_2_)" fill="#4A8096" points="118.1,51.3 106.7,49.3 94.7,50.1 91.8,47.5 81.2,47.9 62.9,39.5 
			49.3,43.3 38.7,42.5 33.7,38.6 23.7,37.8 11.7,41.3 2.4,32.5 -8.8,38.3 -7.6,54.2 118.8,58 		"/>
	</g>
</g>
<g id="text">
</g>
</svg>
