<?xml version="1.0" encoding="utf-8"?>
<!-- Generator: Adobe Illustrator 18.1.0, SVG Export Plug-In . SVG Version: 6.00 Build 0)  -->
<svg version="1.1" xmlns="http://www.w3.org/2000/svg" xmlns:xlink="http://www.w3.org/1999/xlink" x="0px" y="0px"
	 viewBox="0 0 9.2 12.8" enable-background="new 0 0 9.2 12.8" xml:space="preserve">
<g id="background">
</g>
<g id="sidebar">
	<polyline fill="none" stroke="#4A8096" stroke-width="1.602" stroke-miterlimit="10" points="7.8,11.9 2.2,6.4 7.9,0.7 	"/>
	<g>
		<g>
			<defs>
				<circle id="SVGID_5_" cx="377" cy="-315.7" r="367"/>
			</defs>
			<clipPath id="SVGID_2_">
				<use xlink:href="#SVGID_5_"  overflow="visible"/>
			</clipPath>
			<path clip-path="url(#SVGID_2_)" fill="#C1E4EA" d="M758.3-144.7H-4.2c0,0-26.1,273.7,420.8,273.7S758.3-144.7,758.3-144.7z"/>
		</g>
	</g>
</g>
<g id="text">
	<g>
		<defs>
			<rect id="SVGID_43_" x="-29.2" y="-59.7" width="42" height="42"/>
		</defs>
		<clipPath id="SVGID_4_">
			<use xlink:href="#SVGID_43_"  overflow="visible"/>
		</clipPath>
		<g clip-path="url(#SVGID_4_)">
			<g>
				<defs>
					<circle id="SVGID_45_" cx="-8" cy="-35.1" r="36"/>
				</defs>
				<clipPath id="SVGID_6_">
					<use xlink:href="#SVGID_45_"  overflow="visible"/>
				</clipPath>
				<g clip-path="url(#SVGID_6_)">
					<g id="XMLID_14_">
						<g>
							<rect x="7.4" y="-5.8" fill="#FFE8B9" width="15.3" height="15.3"/>
							<rect x="-7.9" y="-5.8" fill="#FFF9C5" width="15.3" height="15.3"/>
						</g>
						<g>
							<polygon fill="none" stroke="#ED926D" stroke-width="0.6431" stroke-miterlimit="24" points="-53.8,-67 -53.8,-82.3 
								-38.5,-82.3 -23.2,-82.3 -7.9,-82.3 7.4,-82.3 22.7,-82.3 38,-82.3 38,-67 38,-51.6 38,-36.3 38,-21 38,-5.8 38,9.5 
								22.7,9.5 7.4,9.5 -7.9,9.5 -23.2,9.5 -38.5,9.5 -53.8,9.5 -53.8,-5.8 -53.8,-21 -53.8,-36.3 -53.8,-51.6 							"/>
						</g>
					</g>
				</g>
			</g>
		</g>
	</g>
</g>
</svg>
