<?xml version="1.0" encoding="utf-8"?>
<!-- Generator: Adobe Illustrator 18.1.0, SVG Export Plug-In . SVG Version: 6.00 Build 0)  -->
<svg version="1.1" xmlns="http://www.w3.org/2000/svg" xmlns:xlink="http://www.w3.org/1999/xlink" x="0px" y="0px"
	 viewBox="0 0 31.2 39.5" enable-background="new 0 0 31.2 39.5" xml:space="preserve">
<g id="background">
</g>
<g id="sidebar">
	<path fill="#FFFFFF" d="M26.6,7h-9.1c-1.8,0-3.3,2-3.3,3.7v1.2c0,1.4,0.9,2.6,2.1,3l0,2.6l3.3-1.5h7c1.8,0,3.6-2.3,3.6-4v-1.2
		C30.2,8.9,28.4,7,26.6,7z M18.6,12.5c-0.6,0-1.1-0.5-1.1-1.1s0.5-1.1,1.1-1.1c0.6,0,1.1,0.5,1.1,1.1S19.2,12.5,18.6,12.5z
		 M22.3,12.5c-0.6,0-1.1-0.5-1.1-1.1s0.5-1.1,1.1-1.1c0.6,0,1.1,0.5,1.1,1.1S22.9,12.5,22.3,12.5z M25.9,12.5
		c-0.6,0-1.1-0.5-1.1-1.1s0.5-1.1,1.1-1.1c0.6,0,1.1,0.5,1.1,1.1S26.5,12.5,25.9,12.5z"/>
	<g>
		<ellipse fill="#FFFFFF" cx="7.8" cy="20.2" rx="4.4" ry="5.1"/>
		<ellipse fill="#FFFFFF" cx="11.9" cy="20.2" rx="0.9" ry="1.3"/>
		<ellipse fill="#FFFFFF" cx="3.6" cy="20.2" rx="0.9" ry="1.3"/>
		<path fill="#FFFFFF" d="M12.5,23.8c-1,1.7-2.7,2.8-4.6,2.8c-1.9,0-3.8-1.1-4.8-2.9c-1,0.7-1.9,1.8-1.9,3v0c0,2,2.1,4.2,4.1,4.2H10
			c2,0,4.2-2.2,4.2-4.2v0C14.2,25.5,13.4,24.5,12.5,23.8z"/>
	</g>
</g>
<g id="text">
</g>
</svg>
