<?xml version="1.0" encoding="utf-8"?>
<!-- Generator: Adobe Illustrator 18.1.0, SVG Export Plug-In . SVG Version: 6.00 Build 0)  -->
<svg version="1.1" xmlns="http://www.w3.org/2000/svg" xmlns:xlink="http://www.w3.org/1999/xlink" x="0px" y="0px"
	 viewBox="0 0 23 21" enable-background="new 0 0 23 21" xml:space="preserve">
<g id="background">
</g>
<g id="sidebar">
	<g>
		<g>
			<path fill="#FFFFFF" d="M12.2,8.7h-1.6c0.9,0.3,1.6,0.6,2.3,1.1C13,9.7,13,9.6,13,9.5C13,9.1,12.7,8.7,12.2,8.7z"/>
			<path fill="#FFFFFF" d="M11.6,6.2h4.2c0.4,0,0.8-0.3,0.8-0.8c0-0.4-0.3-0.8-0.8-0.8h-4.2c-0.4,0-0.8,0.3-0.8,0.8
				C10.8,5.9,11.2,6.2,11.6,6.2z"/>
			<path fill="#FFFFFF" d="M18.4,6.2h2.8c0.5,0,0.9-0.3,0.9-0.8c0-0.4-0.4-0.8-0.9-0.8h-2.8c-0.5,0-0.9,0.3-0.9,0.8
				C17.5,5.9,17.9,6.2,18.4,6.2z"/>
			<path fill="#FFFFFF" d="M17.6,10.2h3.9c0.4,0,0.8-0.3,0.8-0.8c0-0.4-0.3-0.8-0.8-0.8h-3.9c-0.4,0-0.8,0.3-0.8,0.8
				C16.8,9.9,17.2,10.2,17.6,10.2z"/>
			<path fill="#FFFFFF" d="M16,9.5c0-0.4-0.3-0.8-0.8-0.8h-0.6c-0.4,0-0.8,0.3-0.8,0.8c0,0.4,0.3,0.8,0.8,0.8h0.6
				C15.7,10.2,16,9.9,16,9.5z"/>
			<path fill="#FFFFFF" d="M21.5,12.8h-6.2c-0.1,0-0.1,0-0.1,0c0,0.1,0,0.3,0,0.4c0,0.4-0.1,0.7-0.2,1c0.1,0,0.2,0.1,0.3,0.1h6.2
				c0.4,0,0.8-0.3,0.8-0.8S21.9,12.8,21.5,12.8z"/>
			<path fill="#FFFFFF" d="M5.8,6.2h3.4c0.4,0,0.8-0.3,0.8-0.8c0-0.4-0.3-0.8-0.8-0.8H5.8C5.3,4.7,5,5.1,5,5.5
				C5,5.9,5.3,6.2,5.8,6.2z"/>
		</g>
		<path fill="#FFFFFF" d="M7,9.4c-3.7,0-6.7,1.7-6.7,3.8S3.3,17,7,17s6.7-1.7,6.7-3.8S10.7,9.4,7,9.4z M7.1,16.3
			c-1.7,0-3.1-1.4-3.1-3.1s1.4-3.1,3.1-3.1s3.1,1.4,3.1,3.1S8.8,16.3,7.1,16.3z"/>
		<g>
			<circle fill="#FFFFFF" cx="6.3" cy="12.3" r="1.2"/>
		</g>
		<g>
			<circle fill="#FFFFFF" cx="8.4" cy="14.8" r="0.6"/>
		</g>
	</g>
</g>
<g id="text">
</g>
</svg>
