<?xml version="1.0" encoding="utf-8"?>
<!-- Generator: Adobe Illustrator 18.1.0, SVG Export Plug-In . SVG Version: 6.00 Build 0)  -->
<svg version="1.1" xmlns="http://www.w3.org/2000/svg" xmlns:xlink="http://www.w3.org/1999/xlink" x="0px" y="0px"
	 viewBox="0 0 814.5 104.4" enable-background="new 0 0 814.5 104.4" xml:space="preserve">
<g id="background">
</g>
<g id="sidebar">
	<g opacity="0.54">
		<defs>
			<rect id="SVGID_9_" x="-0.2" y="-27.6" opacity="0.54" width="815.5" height="250.6"/>
		</defs>
		<clipPath id="SVGID_2_">
			<use xlink:href="#SVGID_9_"  overflow="visible"/>
		</clipPath>
		<path opacity="0.79" clip-path="url(#SVGID_2_)" fill="#D6ECF2" d="M-13.3,32.4l14.7-9l19.9,6l7.3-9l10.5-17l9.4,6l11.5-6l21,10
			l14.7,13l14.7,10l7.3-8l9.4,5l11.5-16l8.4-3l11.5-6l11.5,9l6.3-4l8.4,7l14.7,10l25.2,9l24.1,2l21,10l14.7-6l7.3,7l27.3,10l10.5-7
			l22,8l24.1-5l19.9,10l26.2-22l13.6,14l25.2,3l35.6,7l26.2-14l17.8,9l19.9,8l8.4,6l16.8,2l17.8-8l16.8,6l29.4,5l26.2-9l51.4,14
			l30.4-3l31.4,18l35.6,4h19.1v53h-863C-19.6,161.4-14.4,32.4-13.3,32.4z"/>
		<path opacity="0.47" clip-path="url(#SVGID_2_)" fill="#F5FDFF" d="M-27.5,84.4l15.7,9l10.5-14l16.8,3l16.8-13l15.7,12l11.5,7
			l7.3-9l19.9-10l11.5-17l15.7-1l10.5,17l15.7,10l28.3-6l47.2-9l8.4,16l27.3-9l25-10l18,7.5l26.5,10l18.5-3l15.8,4.5l26.2,7l11.5,8
			l57.7,2l12.6-11l37.7,15l45.1-10l29.4,24l50.3-8l26.2,16l34.6,12h47.2l41.9,8l33.5,1l16.8-11l12.6,13v61h-869
			C-30.7,206.4-27,84.9-27.5,84.4z"/>
	</g>
</g>
<g id="text">
</g>
</svg>
