<?xml version="1.0" encoding="utf-8"?>
<!-- Generator: Adobe Illustrator 18.1.0, SVG Export Plug-In . SVG Version: 6.00 Build 0)  -->
<svg version="1.1" xmlns="http://www.w3.org/2000/svg" xmlns:xlink="http://www.w3.org/1999/xlink" x="0px" y="0px"
	 viewBox="0 0 851 179" enable-background="new 0 0 851 179" xml:space="preserve">
<g id="background">
</g>
<g id="sidebar">
	<g>
		<defs>
			<rect id="SVGID_13_" x="-1" y="3" width="853.5" height="177"/>
		</defs>
		<clipPath id="SVGID_2_">
			<use xlink:href="#SVGID_13_"  overflow="visible"/>
		</clipPath>
		<g opacity="0.54" clip-path="url(#SVGID_2_)">
			<defs>
				<polygon id="SVGID_15_" opacity="0.54" points="852,225.6 -1.5,225.6 -1.5,11 852,-25 				"/>
			</defs>
			<clipPath id="SVGID_4_">
				<use xlink:href="#SVGID_15_"  overflow="visible"/>
			</clipPath>
			<path opacity="0.79" clip-path="url(#SVGID_4_)" fill="#D6ECF2" d="M-15.3,68l15.4-9l20.8,6l7.7-9l11-17l9.9,6l12.1-6l21.9,10
				l13.5,8.5l8.9-6.5l7.7-8l9.9,5l20.4,5l8.8-3l12.1-6l12.1,9l6.6-4l8.8,7l15.4-26l26.3,9l25.2,2l21.9,10l15.4-6l7.7,7l28.5,10l11-7
				l23,8l25.2-5l20.8,10l17.1-11.5l24.6,3.5l26.3,3l13.5,6l27.4-14l18.7,9l20.8,8l8.8,6l17.6,2l18.7-8l17.6,6l30.7,5l27.4-9l44.4,19
				l31.8-3l66.1,14l35.8,12.5l35.8,9.5L881,161H-21.9C-21.9,161-16.4,68-15.3,68z"/>
			<path clip-path="url(#SVGID_4_)" fill="#FFFFFF" d="M-37.4,85.1l16.5,6.8l11-10.5l17.6,2.3l17.6-9.8l16.5,9l12.1,5.3l7.7-6.8
				l20.8-7.5l7.9-4.5l16.5-0.8l15.1,4.5l16.5,7.5l29.6-4.5l49.4-6.8l8.8,12.1l28.5-6.8l26.2-7.5l18.8,5.7l27.7,7.5l19.4-2.3
				l16.5,3.4l27.4,5.3l12.1,6l60.3,1.5l13.2-8.3l39.5,11.3l47.2-7.5l30.7,18.1l52.7-6l27.4,12.2l36.2,9.2h49.4l43.9,5.9l35.1,0.7
				l17.7-8.3L869,131v46H-40.7C-40.7,177-36.9,85.5-37.4,85.1z"/>
			<rect x="-23" y="118.5" clip-path="url(#SVGID_4_)" fill="#D2E7EE" width="893.8" height="118.8"/>
		</g>
	</g>
</g>
<g id="text">
</g>
</svg>
