<?xml version="1.0" encoding="utf-8"?>
<!-- Generator: Adobe Illustrator 18.1.0, SVG Export Plug-In . SVG Version: 6.00 Build 0)  -->
<svg version="1.1" xmlns="http://www.w3.org/2000/svg" xmlns:xlink="http://www.w3.org/1999/xlink" x="0px" y="0px"
	 viewBox="0 0 851 117" enable-background="new 0 0 851 117" xml:space="preserve">
<g id="background">
</g>
<g id="sidebar">
	<g>
		<defs>
			<rect id="SVGID_13_" x="-1" y="3" width="823.5" height="114"/>
		</defs>
		<clipPath id="SVGID_2_">
			<use xlink:href="#SVGID_13_"  overflow="visible"/>
		</clipPath>
		<g opacity="0.54" clip-path="url(#SVGID_2_)">
			<defs>
				<polygon id="SVGID_15_" opacity="0.54" points="822,225.6 -1.5,225.6 -1.5,11 822,-25 				"/>
			</defs>
			<clipPath id="SVGID_4_">
				<use xlink:href="#SVGID_15_"  overflow="visible"/>
			</clipPath>
			<path opacity="0.79" clip-path="url(#SVGID_4_)" fill="#D6ECF2" d="M-14.8,68L0,59l20.1,6l7.4-9l10.6-17l9.5,6l11.6-6l21.2,10
				l13,8.5l8.6-6.5l7.4-8l9.5,5l19.6,5l8.5-3l11.6-6l11.6,9l6.4-4l8.5,7l14.8-26l25.4,9l24.3,2L271,51l14.8-6l7.4,7l27.5,10l10.6-7
				l22.2,8l24.3-5L398,68l16.5-11.5l23.8,3.5l25.4,3l13,6l26.5-14l18,9l20.1,8l8.5,6l16.9,2l18-8l16.9,6l29.6,5l26.5-9l42.9,19
				l30.7-3l63.8,14l34.5,12.5L864,126l-14,35H-21.1C-21.1,161-15.8,68-14.8,68z"/>
			<path clip-path="url(#SVGID_4_)" fill="#FFFFFF" d="M-36.1,85.1l15.9,6.8l10.6-10.5l16.9,2.3l16.9-9.8l15.9,9l11.6,5.3l7.4-6.8
				l20.1-7.5l7.6-4.5l15.9-0.8l14.6,4.5l15.9,7.5l28.6-4.5l47.6-6.8l8.5,12.1l27.5-6.8l25.3-7.5l18.2,5.7l26.8,7.5l18.7-2.3
				l15.9,3.4l26.5,5.3l11.6,6l58.2,1.5l12.7-8.3l38.1,11.3l45.5-7.5l29.6,18.1l50.8-6l26.5,12.2l34.9,9.2h47.6l42.3,5.9l33.9,0.7
				l16.8-8.3L838,131v46H-39.3C-39.3,177-35.6,85.5-36.1,85.1z"/>
		</g>
	</g>
</g>
<g id="text">
</g>
</svg>
