<?xml version="1.0" encoding="utf-8"?>
<!-- Generator: Adobe Illustrator 18.1.0, SVG Export Plug-In . SVG Version: 6.00 Build 0)  -->
<svg version="1.1" xmlns="http://www.w3.org/2000/svg" xmlns:xlink="http://www.w3.org/1999/xlink" x="0px" y="0px"
	 viewBox="0 0 1191.3 104.4" enable-background="new 0 0 1191.3 104.4" xml:space="preserve">
<g id="background">
</g>
<g id="sidebar">
	<path fill="#CFDFE2" d="M-3.7,44.4l17-22l22-6l16-13l15,16l2-9l16,6l14-2l22,31l5-13l16,10l36,10l16-12l13-6l15-20l8,6l18-9l10,6
		l9,13l9,5l8,7l15-15l6,4l19-20l14,12l6-4l10,16l15,6l11,6l13-19l9-1l34-5l35,12l25,12l23-3l16-5l7,8l11-4l39,17l20-15l26,11
		l12.5-7.5l30.5,17.5l10-6.5l25,8.5l32-8l46-5l28-8l31,17l34,1l19-3l45,6l13-11l23,8l43,12l19-12l19,6l21,14l18-5l20,5l58,5l20,1v22
		H-8.7C-8.7,112.4-5.7,42.4-3.7,44.4z"/>
	<path fill="#EDF6F9" d="M-5.2,15.9l37.5,19.5l8.2,16.1l16.3,7.4l13,9l7.6-9.9l15.8-7l35.1,12.3l20.8,11.4l17.2,1.6l11.3-13.6
		l13.5,4.1l19.1,6l11.6-3.7l15-14.8l17.6,15.8l8.6-4.6l12.2,6.2l21.2,8.7l38.8-16.3l33.9-0.2l24.7,7.8l27-11.5l23,14.5l30.1-2.1
		l14.2-7.9l28.7,19.1l33,0.5l23.7,16.5l35.3-24.3l20,12.8l35.5,0.7l50.4,3.8l35.8-16.3l25.6,7.4l28.4,6.2l12.1,5.2l23.6,0.5
		l24.5-9.6l23.9,4.5l41.5,2.4l36.2-11.3l72.9,9.4l42.4-5.7l45.2,15.1l50.2,0.8l26.8-1.7l6.6,23.7H-2.4C-2.4,124.4-6.6,16-5.2,15.9z"
		/>
</g>
<g id="text">
</g>
</svg>
