<?xml version="1.0" encoding="utf-8"?>
<!-- Generator: Adobe Illustrator 18.1.0, SVG Export Plug-In . SVG Version: 6.00 Build 0)  -->
<svg version="1.1" xmlns="http://www.w3.org/2000/svg" xmlns:xlink="http://www.w3.org/1999/xlink" x="0px" y="0px"
	 viewBox="0 0 42 42" enable-background="new 0 0 42 42" xml:space="preserve">
<g id="background">
</g>
<g id="sidebar">
	<g>
		<g>
			<defs>
				<circle id="SVGID_5_" cx="406.2" cy="-256" r="367"/>
			</defs>
			<clipPath id="SVGID_2_">
				<use xlink:href="#SVGID_5_"  overflow="visible"/>
			</clipPath>
			<circle clip-path="url(#SVGID_2_)" fill="#4A8096" cx="406.2" cy="-256" r="367"/>
			<path clip-path="url(#SVGID_2_)" fill="#C1E4EA" d="M787.4-85H25c0,0-26.1,273.7,420.8,273.7S787.4-85,787.4-85z"/>
		</g>
	</g>
</g>
<g id="text">
	<g>
		<defs>
			<rect id="SVGID_31_" x="-48" width="42" height="42"/>
		</defs>
		<clipPath id="SVGID_4_">
			<use xlink:href="#SVGID_31_"  overflow="visible"/>
		</clipPath>
		<g clip-path="url(#SVGID_4_)">
			<g>
				<defs>
					<circle id="SVGID_33_" cx="-26.8" cy="24.5" r="36"/>
				</defs>
				<clipPath id="SVGID_6_">
					<use xlink:href="#SVGID_33_"  overflow="visible"/>
				</clipPath>
				<g clip-path="url(#SVGID_6_)">
					<g id="XMLID_16_">
						<g>
							<rect x="3.9" y="38.6" fill="#FFD6E2" width="15.3" height="15.3"/>
							<rect x="3.9" y="23.3" fill="#FFE7EE" width="15.3" height="15.3"/>
							<rect x="3.9" y="8" fill="#FFD6E2" width="15.3" height="15.3"/>
							<rect x="3.9" y="-7.3" fill="#FFE7EE" width="15.3" height="15.3"/>
							<rect x="-11.4" y="38.6" fill="#FFE7EE" width="15.3" height="15.3"/>
							<rect x="-11.4" y="23.3" fill="#FFD6E2" width="15.3" height="15.3"/>
							<rect x="-11.4" y="8" fill="#FFE7EE" width="15.3" height="15.3"/>
							<rect x="-11.4" y="-7.3" fill="#FFD6E2" width="15.3" height="15.3"/>
						</g>
						<g>
							<polygon fill="none" stroke="#FF8096" stroke-width="0.6431" stroke-miterlimit="24" points="-72.6,-7.3 -72.6,-22.6 
								-57.3,-22.6 -42,-22.6 -26.7,-22.6 -11.4,-22.6 3.9,-22.6 19.2,-22.6 19.2,-7.3 19.2,8 19.2,23.3 19.2,38.6 19.2,53.9 
								19.2,69.2 3.9,69.2 -11.4,69.2 -26.7,69.2 -42,69.2 -57.3,69.2 -72.6,69.2 -72.6,53.9 -72.6,38.6 -72.6,23.3 -72.6,8 							
								"/>
						</g>
					</g>
				</g>
			</g>
		</g>
	</g>
	<g>
		<defs>
			<rect id="SVGID_43_" width="42" height="42"/>
		</defs>
		<clipPath id="SVGID_8_">
			<use xlink:href="#SVGID_43_"  overflow="visible"/>
		</clipPath>
		<g clip-path="url(#SVGID_8_)">
			<g>
				<defs>
					<circle id="SVGID_45_" cx="21.2" cy="24.5" r="36"/>
				</defs>
				<clipPath id="SVGID_10_">
					<use xlink:href="#SVGID_45_"  overflow="visible"/>
				</clipPath>
				<g clip-path="url(#SVGID_10_)">
					<g id="XMLID_14_">
						<g>
							<rect x="36.6" y="38.6" fill="#FFF9C5" width="15.3" height="15.3"/>
							<rect x="36.6" y="23.3" fill="#FFE8B9" width="15.3" height="15.3"/>
							<rect x="36.6" y="8" fill="#FFF9C5" width="15.3" height="15.3"/>
							<rect x="36.6" y="-7.3" fill="#FFE8B9" width="15.3" height="15.3"/>
							<rect x="21.3" y="38.6" fill="#FFE8B9" width="15.3" height="15.3"/>
							<rect x="21.3" y="23.3" fill="#FFF9C5" width="15.3" height="15.3"/>
							<rect x="21.3" y="8" fill="#FFE8B9" width="15.3" height="15.3"/>
							<rect x="21.3" y="-7.3" fill="#FFF9C5" width="15.3" height="15.3"/>
							<rect x="6" y="38.6" fill="#FFF9C5" width="15.3" height="15.3"/>
							<rect x="6" y="23.3" fill="#FFE8B9" width="15.3" height="15.3"/>
							<rect x="6" y="8" fill="#FFF9C5" width="15.3" height="15.3"/>
							<rect x="6" y="-7.3" fill="#FFE8B9" width="15.3" height="15.3"/>
							<rect x="-9.3" y="38.6" fill="#FFE8B9" width="15.3" height="15.3"/>
							<rect x="-9.3" y="23.3" fill="#FFF9C5" width="15.3" height="15.3"/>
							<rect x="-9.3" y="8" fill="#FFE8B9" width="15.3" height="15.3"/>
							<rect x="-9.3" y="-7.3" fill="#FFF9C5" width="15.3" height="15.3"/>
						</g>
						<g>
							<polygon fill="none" stroke="#ED926D" stroke-width="0.6431" stroke-miterlimit="24" points="-24.6,-7.3 -24.6,-22.6 
								-9.3,-22.6 6,-22.6 21.3,-22.6 36.6,-22.6 51.9,-22.6 67.2,-22.6 67.2,-7.3 67.2,8 67.2,23.3 67.2,38.6 67.2,53.9 67.2,69.2 
								51.9,69.2 36.6,69.2 21.3,69.2 6,69.2 -9.3,69.2 -24.6,69.2 -24.6,53.9 -24.6,38.6 -24.6,23.3 -24.6,8 							"/>
						</g>
					</g>
				</g>
			</g>
			<g id="XMLID_13_">
				<path fill="#FFF9C5" d="M37.5,38.4c0.6,0.8,0.3,2.4-0.7,3.5c-0.3,0.3-0.6,0.6-0.9,0.8L35.4,42c0,0,0.5-0.2,1-1.6l-1.9-3.5
					c0.2-0.8,0.5-1.7,0.5-1.7c0-0.1,0-0.2,0.1-0.4C35.4,35.4,36.7,37.5,37.5,38.4z"/>
				<path fill="#FFF9C5" d="M34.3,40.4c-0.8-0.6-1.1-1.5-1.2-2.4l1.3-0.1c0-0.2,0-0.6,0.1-0.9l1.9,3.5c-0.5,1.5-1,1.6-1,1.6l0.4,0.7
					c0.3-0.2,0.6-0.5,0.9-0.8c0,0,0.2,0.2,0.6,0.7c0,0,0.3,3.6-3.4,6.2c-1,0.6-2.1,1-3.2,1.5c-0.5-0.4-1.3-0.8-2.1-1.2
					c1.8-0.5,3.4-2.2,3.4-2.2l0.4-1c0,0,0.6-0.2,0.7-1.4c2-2,0.2-4.6,0.2-4.6l0.1-0.1C33.6,40,33.9,40.2,34.3,40.4z"/>
				<path fill="#FFF9C5" d="M34.5,32.3c0,0,0.9,0,0.6,2.5c0,0,0,0-0.1,0c-0.5,0.2-1,0.4-1.7,0.5l-0.1,0c0.3-1.1,0.6-1.9,0.7-1.9
					c0,0,0,0,0,0C34.2,32.9,34.4,32.6,34.5,32.3z"/>
				<path fill="#FFF9C5" d="M34.5,36.9c-0.1,0.3-0.1,0.7-0.1,0.9L33.1,38c-0.1-0.9,0-1.9,0.2-2.7l0.1,0c0.6-0.1,1.2-0.2,1.7-0.5
					c0,0,0,0,0.1,0.1c0,0.1,0,0.2-0.1,0.4C35,35.2,34.7,36.1,34.5,36.9z"/>
				<path fill="#FFF9C5" d="M33,44.5c0,1.2-0.7,1.4-0.7,1.4s-1.5-0.9-2.1-4.3c-0.6-3.4-2.8-3.4-2.9-3.4c0.7-0.9,1-1.8,1-1.8l0-0.1
					c0.6-0.1,1.4-0.3,2.4-0.6c0.8-0.2,1.5-0.6,2-1.1v0c0,0-1.2,3.5,0.5,5.1l-0.1,0.1C33.2,39.9,35,42.5,33,44.5z"/>
				<path fill="#FFF9C5" d="M31,26.4c0.1,0,0.2,0,0.2,0c0.3,0.4,0.1,0.8,0.1,0.8c0.5,0.4,0.4,1.7,0.4,1.7c0.3-0.4,0.9-0.9,1-0.9
					c0,0.4,0,0.9-0.2,1.4l0,0c-0.7,0.3-1.5,0.8-2.3,1.5L30,30.7c0.7-1.5,0.5-2.6-0.1-3.6C30.3,26.7,30.8,26.5,31,26.4z"/>
				<path fill="#FFFFD6" d="M30.9,25.8c0.1,0,0.2,0,0.3,0c0,0,0.1,0,0.1,0c0.3,0,0.6,0.2,0.9,0.5c0.1,0.1,0.1,0.1,0.2,0.2
					c0.2,0.3,0.4,0.8,0.4,1.4c-0.1,0-0.7,0.5-1,0.9c0,0,0-1.4-0.4-1.7c0,0,0.2-0.4-0.1-0.8c0,0-0.1,0-0.2,0
					c-0.3-0.1-0.6-0.3-0.8-0.4C30.4,25.9,30.7,25.8,30.9,25.8z"/>
				<path fill="#FFF9C5" d="M26.8,47.2c-1.1-0.6-1.3-2.3-1.3-2.3c-1.4-2.5-0.2-5-0.2-5l0-0.3c0.9-0.1,1.6-0.7,2.1-1.4
					c0.1,0,2.3,0,2.9,3.4c0.6,3.4,2.1,4.3,2.1,4.3l-0.4,1c0,0-1.6,1.7-3.4,2.2c-1.6-0.7-3.2-1.4-3.7-1.5l0-0.1
					C24.9,47.5,25.4,47.1,26.8,47.2z"/>
				<path fill="#FFFFD6" d="M31,26.4c-0.2,0.1-0.7,0.3-1.1,0.7c-0.1-0.2-0.3-0.5-0.4-0.7c0.2-0.2,0.4-0.3,0.7-0.4
					C30.4,26.2,30.7,26.3,31,26.4z"/>
				<path fill="#FFF9C5" d="M28.8,29.9C28.8,29.9,28.8,29.9,28.8,29.9c-0.2-0.2-0.2-0.8-0.2-0.8c0.3-0.7,0.6-1.2,0.9-1.6
					c0.6,1.7,0.4,3.3,0.4,3.3l0.2,0.2c-0.5,0.4-1,0.9-1.4,1.5c-1.1,0.8-1.8,0.4-2.3,0.3c-0.5-0.1-1,0.1-1,0.1l0,0
					c0.3-0.3,0.6-0.6,0.9-0.9c0.1-0.1,0.2-0.3,0.4-0.4c0,0,0.4-0.5,0.9-0.8c0,0,0,0,0,0h0c0.1,0,0.3-0.1,0.4-0.1
					c0.2,0,0.3-0.2,0.5-0.3c0,0,0,0,0.1-0.1c0-0.1,0.1-0.1,0.1-0.2c0,0,0,0,0,0C28.7,30,28.8,30,28.8,29.9
					C28.8,29.9,28.8,29.9,28.8,29.9z"/>
				<path fill="#FFFFD6" d="M23.8,28.8c1.3-0.9,2.1-1.9,2.6-2.9c0.3,0,0.7,0.1,1,0.1c0,1.5-0.3,3.3-1.1,4.4c0.1-0.1,1.4-1.2,1.8-4.3
					c0.2,0,0.4,0,0.5,0.1c0,0.5-0.1,1.2-0.4,2c0.1-0.3,0.5-1,1.1-1.6c0,0.1,0.1,0.2,0.1,0.2c0.1,0.2,0.2,0.4,0.3,0.6
					c-0.3,0.4-0.7,0.9-0.9,1.6c0,0-0.1,0.6,0.2,0.8c0,0,0,0,0,0c0,0,0,0,0,0.1c0,0.1-0.1,0.1-0.1,0.2c0,0,0,0,0,0
					c0,0-0.1,0.1-0.1,0.2c0,0,0,0-0.1,0.1c-0.1,0.1-0.3,0.2-0.5,0.3c0,0,0,0-0.1,0c-0.1,0-0.2,0.1-0.3,0.1h0c0,0,0,0,0,0
					c-0.1,0-0.9,0.4-1.3,1.2c-0.3,0.3-0.6,0.6-0.9,0.9c-1.1,0.9-2.3,1.7-2.9,2.1c0,0,0,0,0,0c-0.9,0.5-3.8,1.9-4.5,2.1
					c-0.4,0.2-0.8,0.3-1.2,0.4c0,0,0,0,0,0c-0.1,0-0.1,0-0.1,0c0,0,0,0,0,0c-2.3,0.6-4.2,0.4-4.3-0.2c-0.1-0.4-0.4-1-0.7-1.4
					c-0.3-0.5-0.6-0.8-0.6-0.8c-1.4-1.6-2.6-4.2-2.8-6.5c-0.1-0.6-0.1-1.2,0-1.8c0-0.1,0-0.3,0-0.4c1.2,0.8,2.7,0.6,3.3-0.1l0,0
					c0,0,0.1-0.1,0.1-0.1c0.4-0.6,0.5-1.2,0.6-1.9c0,0,1.4-0.2,2.4,0.7c0.1,0.8,0.6,2.7,3.6,3.4c0,0,2.9,0.7,4.9-1.6
					c0,0,0.6-1,1.6-0.9c0.3,0,0.7,0.1,1.1,0.1C25,27.7,24.3,28.5,23.8,28.8z M23.8,28.9c-0.1,0.1-0.2,0.1-0.3,0.2
					C23.5,29,23.6,29,23.8,28.9z M14.4,33.5c0.9,0,2-0.3,2.5-0.9c0.1-0.1,0.2-0.2,0.2-0.3c0.1-0.3-0.1-0.5-0.4-0.6
					c0,0-0.2,0.3-0.5,0.5c-0.1,0.1-0.2,0.1-0.4,0.1l-0.3-0.2l-0.4,0.2c0,0-1.1,0.1-1.9-0.2c-0.4-0.1-0.7-0.4-0.9-0.7
					c-0.4-0.1-0.7-0.2-0.8-0.3l0,0c0.3,0.4,0.6,0.6,0.6,0.6c0.1,0.4,0.3,0.7,0.5,1c0,0,0,0,0,0c0.1,0.1,0.3,0.3,0.6,0.5h0
					c0,0,0.1,0,0.1,0c0,0,0,0,0,0C13.8,33.4,14.1,33.5,14.4,33.5C14.4,33.5,14.4,33.5,14.4,33.5z"/>
				<path fill="#ED926D" d="M29.4,25.8l-0.2,0.3c-0.1-0.1-0.1-0.2-0.2-0.3C29.3,25.8,29.4,25.8,29.4,25.8z"/>
				<path fill="#ED926D" d="M29.2,26.1l-0.1,0.2c-0.1-0.2-0.1-0.4-0.2-0.5c0,0,0.1,0,0.1,0C29.1,25.8,29.1,25.9,29.2,26.1z"/>
				<path fill="#ED926D" d="M28.9,25.7c0.1,0.2,0.1,0.4,0.2,0.5c0,0-0.2,0-0.4,0c0-0.2,0-0.4,0-0.5C28.7,25.7,28.8,25.7,28.9,25.7z"
					/>
				<path fill="#ED926D" d="M28.6,25.7c0,0.2,0,0.3,0,0.5c-0.1,0-0.3,0-0.5-0.1c0-0.2,0-0.4,0.1-0.5C28.3,25.6,28.5,25.6,28.6,25.7z
					"/>
				<path fill="#ED926D" d="M28.2,25.6c0,0.2,0,0.4-0.1,0.5c-0.2,0-0.4,0-0.7-0.1c0-0.2,0-0.4,0-0.6C27.7,25.5,27.9,25.5,28.2,25.6z
					"/>
				<path fill="#ED926D" d="M27.4,25.4c0,0.2,0,0.4,0,0.6c-0.3,0-0.7-0.1-1-0.1c0.1-0.2,0.2-0.4,0.3-0.6
					C27,25.4,27.2,25.4,27.4,25.4z"/>
				<path fill="#FFFFD6" d="M27.3,23.5c0,0,0.1,0.8,0.1,2c-0.2,0-0.5-0.1-0.7-0.1C27,24.6,27.2,23.9,27.3,23.5z"/>
				<path fill="#FFFFD6" d="M25.4,23c0.1,0,0.9-0.6,1.5-1.5l0.3,0c0,0,0,0,0,0c-0.3,1.5-0.7,2.7-1.1,3.7c-0.9-0.2-1.7-0.4-1.9-0.5
					c-0.5-0.4-0.2-0.1-0.8-0.3c0,0-0.5-0.9-2-1.5l0.1-0.2c0.6-0.6,1.1-1.3,1.4-1.9c1,0.9,1.7,1.7,1.7,1.7l0.9,0.4
					C25.5,22.9,25.5,22.9,25.4,23z"/>
				<path fill="#FFF9C5" d="M23.9,47.4L23.9,47.4c-0.4,0.2-0.9,0.4-1.5,0.7v0c-1.1-1.4-0.5-3.4-0.5-3.4c-1.9-4-0.3-4.9-0.3-4.9
					l0-0.3c1.4,0.1,2.5,0.2,3.3,0.2c0.1,0,0.3,0,0.4,0l0,0.3c0,0-1.1,2.5,0.2,5c0,0,0.2,1.7,1.3,2.3c-1.4-0.1-2,0.2-2,0.2l0,0.1
					c-0.1,0-0.1,0-0.1,0S24.2,47.3,23.9,47.4z"/>
				<path fill="#ED926D" d="M26.7,25.3c-0.1,0.2-0.2,0.4-0.3,0.6c-0.2,0-0.4,0-0.6-0.1c0.1-0.2,0.2-0.5,0.3-0.7
					C26.3,25.2,26.5,25.3,26.7,25.3z"/>
				<path fill="#FFF9C5" d="M22.5,34.9c0.7-0.4,1.9-1.2,2.9-2.1l0,0c0,0,0.5-0.3,1-0.1c0,0-2.3,1.3-3,3.1l0,0
					c-3,1.2-3.7,3.6-3.7,3.6c-0.3,0-0.7,0-1,0c-0.1,0-0.2,0-0.4,0v0c-0.1-2.1-1.2-2.1-1.7-2c0.4-0.1,0.8-0.2,1.2-0.4
					C18.7,36.8,21.6,35.4,22.5,34.9C22.5,34.9,22.5,34.9,22.5,34.9z"/>
				<path fill="#ED926D" d="M14.5,24.9c0-0.2,0-0.4,0-0.4c0-0.8,0.6-2.5,4.3-2.3c1.1,0,2,0.3,2.7,0.6c1.5,0.6,2,1.5,2,1.5
					c0.6,0.2,0.3,0,0.8,0.3c0.2,0.1,1,0.3,1.9,0.5c-0.1,0.3-0.2,0.5-0.3,0.7c-0.5,0-0.9-0.1-1.1-0.1c-1-0.1-1.6,0.9-1.6,0.9
					c-2.1,2.3-4.9,1.6-4.9,1.6C15.1,27.7,14.6,25.8,14.5,24.9z M23,25C23,25,23,25,23,25c0-0.2,0-0.4,0-0.4c-0.8-2-3.7-2.2-3.7-2.2
					c-2-0.1-3.1,0.3-3.7,0.8c0,0,0,0,0,0c-0.2,0.1-0.3,0.3-0.4,0.5c-0.4,0.7-0.3,1.5-0.3,1.5c0.1,1.8,2.4,3.8,5.7,2.8
					C22.8,27.2,23,25.7,23,25z"/>
				<path fill="#FFFFD6" d="M25.6,15.8c1.5,2.5,0.9,5.3-0.1,7l-0.9-0.4c0,0-0.6-0.9-1.7-1.7c0.4-0.8,0.7-1.6,0.9-2.4
					c1-2,1-3.6,1-3.6C25.1,15,25.4,15.4,25.6,15.8z"/>
				<path fill="#FFF9C5" d="M24.9,14.6c0,0,0,1.6-1,3.6c0.4-1.8,0.4-3.4,0.2-4.4c-0.1-0.8-0.2-1.2-0.2-1.2l0,0
					C24.2,13.2,24.5,13.9,24.9,14.6z"/>
				<path fill="#FFFFD6" d="M22.3,12.7c1.3,0.4,1.5,1.1,1.5,1.1c-1.1-0.7-1.4,0.2-1.4,0.2C22.6,13.3,22.3,12.7,22.3,12.7z"/>
				<path fill="#FFFFD6" d="M22.4,24.9C22.4,24.9,22.5,24.9,22.4,24.9c0.2,0,0.4,0,0.5,0c0,0.7-0.2,2.3-2.4,3
					c-3.3,1.1-5.5-1-5.7-2.8c0,0-0.2-0.8,0.3-1.5c0,0.1,0,0.3,0,0.4c0.2,0.3,0.7,0.5,1.1,0.3c0.4-0.2,0.7-0.6,0.6-0.9
					c0.7-0.5,1.7-0.5,2.4-0.4c0.1,0,0.3,0.1,0.4,0.1c-0.2,0-0.3,0-0.5,0c-0.6,0.1-1,0.2-1,0.2l0.1,0.2l0,0.1
					c-0.2,0.4-0.6,0.5-0.6,0.5s0.3,0,0.7-0.1c0.2,0.5,0.7,0.7,1,0.8c0,0.1,0,0.1,0,0.1c0.2,0.1,0.7,0,0.7,0
					c-0.3,0.3-0.8,0.3-0.8,0.3c1.6,0.2,2.5,0,2.9-0.2C22.3,25,22.4,25,22.4,24.9z M16,27c0,0,0.2-0.3,0.1-0.8c0-0.4-1-1.3-1-1.3
					C14.9,25.9,16,27,16,27z"/>
				<path fill="#ED926D" d="M23,25C23,25,23,25,23,25c-0.2-0.1-0.4-0.1-0.5-0.1c0.2-0.1,0.2-0.2,0.2-0.2s-0.1-0.1-0.2-0.2
					C22.8,24.7,22.9,24.9,23,25z"/>
				<path fill="#FFFFD6" d="M19.3,23.1c-0.7-0.1-1.7-0.1-2.4,0.4c0,0,0-0.1,0-0.1c-0.2-0.3-0.7-0.5-1.1-0.3c-0.1,0-0.1,0.1-0.2,0.1
					c0.6-0.5,1.7-0.9,3.7-0.8c0,0,2.9,0.1,3.7,2.2c0,0,0,0.1,0,0.4c0,0-0.2-0.3-0.4-0.5c0,0,0,0,0,0c-0.3-0.4-1.1-1.1-2.2-1.2h-0.5
					C19.7,23.2,19.5,23.1,19.3,23.1z"/>
				<path fill="#ED926D" d="M22.3,24.8c0,0-0.1-0.1-0.1-0.1l0.3-0.3c0,0,0,0,0,0c0.1,0.1,0.2,0.2,0.2,0.2s0,0.1-0.2,0.2
					C22.4,24.9,22.4,24.9,22.3,24.8C22.4,24.9,22.4,24.8,22.3,24.8z"/>
				<path fill="#ED926D" d="M22.2,24.8L22,25c0,0,0.1,0,0.3-0.1c0,0-0.1,0.1-0.1,0.1c-0.5,0.2-1.3,0.4-2.9,0.2c0,0,0.4,0,0.8-0.3
					c0,0-0.5,0.1-0.7,0c0,0,0-0.1,0-0.1c0.3,0.1,0.5,0,0.5,0s1.9-0.4,0.6-1.2c-0.3-0.2-0.5-0.3-0.7-0.3c-0.1,0-0.3-0.1-0.6-0.1
					c0.2,0,0.3,0,0.5,0c0,0,0.1,0,0.1,0h0.1h0.5c1.1,0.1,1.8,0.8,2.2,1.2L22.2,24.8z"/>
				<path fill="#ED926D" d="M22.5,24.9C22.5,24.9,22.4,24.9,22.5,24.9C22.4,24.9,22.4,24.9,22.5,24.9C22.4,24.9,22.4,24.9,22.5,24.9
					z"/>
				<path fill="#ED926D" d="M22.4,24.9C22.4,24.9,22.4,24.9,22.4,24.9c0,0.1-0.1,0.1-0.2,0.2c0-0.1,0.1-0.1,0.1-0.1
					C22.3,24.9,22.4,24.9,22.4,24.9z"/>
				<path fill="#ED926D" d="M22.3,24.8C22.4,24.8,22.4,24.9,22.3,24.8C22.4,24.9,22.3,24.9,22.3,24.8C22.3,24.9,22.3,24.9,22.3,24.8
					z"/>
				<path fill="#FFF9C5" d="M21.5,48.4c-0.9,0.3-1.9,0.7-3,1.1l-0.1-0.4c-2-0.9-0.8-3.2-0.8-3.2l-0.3-1.2c-0.9-3.8,1.4-4.7,1.4-4.7
					l0-0.5c0.3,0,0.7,0,1,0c0.6,0,1.2,0,1.8,0l0,0.3c0,0-1.6,0.9,0.3,4.9c0,0-0.6,2,0.5,3.4v0C22.1,48.1,21.8,48.2,21.5,48.4z"/>
				<path fill="#ED926D" d="M22.3,24.8C22.3,24.9,22.3,24.9,22.3,24.8C22.1,24.9,22,25,22,25l0.2-0.2C22.2,24.8,22.3,24.8,22.3,24.8
					z"/>
				<path fill="#FFFFD6" d="M21.7,13.9c0-0.3,0-0.5,0-0.5c0,0.2,0,0.4,0.1,0.7c0,0.6,0.1,1.3,0.1,2.1c-0.4,1.3-0.8,2.3-1.1,3.1
					c-0.6-0.3-1.2-0.4-1.9-0.5c0.2-0.2,0.3-0.4,0.4-0.6l0,0C20.9,16.9,21.6,14.4,21.7,13.9C21.7,13.9,21.7,13.9,21.7,13.9z"/>
				<path fill="#FFF9C5" d="M21.7,13.4c0,0,0,0.2,0,0.5c0,0,0,0,0,0c-0.1,0.5-0.8,3-2.4,4.2c0.5-0.8,0.9-1.7,1.1-2.5
					c0.6-1.9,0.5-3.4,0.5-3.6c0.1-0.6,0.2-1,0.2-1.2c0,0,0,0,0,0c0.1-0.2,0.2-0.4,0.3,0c0,0,0,0,0,0C21.5,11.3,21.6,12.2,21.7,13.4z
					"/>
				<path fill="#FFFFD6" d="M19.7,21.4c0.8-0.6,1.4-1.3,1.7-1.9c0.2,0.1,0.3,0.2,0.5,0.3c0,0.7-0.1,1.3-0.2,1.9
					c0,0.2-0.1,0.8-0.1,0.8l-0.1,0.2c-0.7-0.3-1.6-0.5-2.7-0.6c-3.6-0.2-4.2,1.5-4.3,2.3c0,0,0,0.1,0,0.4c-1.1-0.8-2.4-0.7-2.4-0.7
					c0,0,0-0.1,0-0.1c0.1-1.4-0.4-2.6-0.4-2.6l0-0.1c0.5-0.2,1-0.5,1.4-0.8c3.3-0.7,4.7-3.1,4.7-3.1c0.6-0.5,1-1,1.4-1.5
					c-0.2,1.1-0.7,2-1.1,2.8c-1.1,1.7-2.4,2.6-2.5,2.7c1.4-0.7,2.5-1.7,3.3-2.7c0.7,0,1.3,0.2,1.9,0.5
					C20.3,20.5,19.8,21.2,19.7,21.4C19.6,21.5,19.6,21.5,19.7,21.4C19.6,21.5,19.7,21.5,19.7,21.4z"/>
				<path fill="#ED926D" d="M19.7,23.3c0.2,0,0.5,0.1,0.7,0.3c1.2,0.8-0.6,1.2-0.6,1.2s-0.2,0-0.5,0c0-0.1,0-0.1-0.1-0.2
					c0,0,0.3,0,0.4-0.1c0,0,0-0.2-0.4-0.3c0.1,0,0.9,0.2,1-0.2c0,0,0-0.6-0.9-0.2c0,0,0.1-0.1,0.1-0.2c0,0-0.4,0.1-0.9,0.4
					c-0.1,0-0.1,0.1-0.2,0.1c0,0,0,0,0-0.1C18.3,24,18.9,23.3,19.7,23.3z"/>
				<path fill="#FFFFD6" d="M19.3,24.3c0.3,0.1,0.4,0.3,0.4,0.3c0,0.1-0.4,0.1-0.4,0.1c0.1,0,0.1,0.1,0.1,0.2
					c-0.3-0.1-0.8-0.3-1-0.8c0.1,0,0.1-0.1,0.2-0.1c0.4-0.3,0.9-0.4,0.9-0.4c0,0.1-0.1,0.2-0.1,0.2c0.9-0.3,0.9,0.2,0.9,0.2
					C20.1,24.4,19.4,24.3,19.3,24.3z"/>
				<path fill="#ED926D" d="M18.2,23.7l-0.1-0.2c0,0,0.4-0.1,1-0.2c0.3,0,0.5,0.1,0.6,0.1c-0.9-0.1-1.4,0.7-1.4,0.7c0,0,0,0,0,0.1
					c-0.4,0.2-0.7,0.1-0.7,0.1S18.1,24.1,18.2,23.7L18.2,23.7z"/>
				<path fill="#FFFFD6" d="M19.4,12.5c0.1,0.4-0.2,0.7-0.2,0.7c-0.4-0.4-1.5-0.2-1.5-0.2c0.5-0.5,0.5-1.2,0.5-1.2
					C19.2,12,19.4,12.5,19.4,12.5z"/>
				<path fill="#FFF9C5" d="M18.5,49.4c1.1-0.3,2.1-0.7,3-1.1c-2,1.6-4.5,3.2-4.6,3.3c0,0,0,0,0,0c-1.3-0.2-2.6-0.5-3.8-0.9L14,50
					c-0.7-1,0-2.7,0-2.7c-2.4-4.3,0.5-6.9,0.5-6.9l-0.1-0.2c1.3-0.4,2.7-0.6,4-0.7c0.1,0,0.2,0,0.4,0l0,0.5c0,0-2.3,0.9-1.4,4.7
					l0.3,1.2c0,0-1.3,2.3,0.8,3.2L18.5,49.4z"/>
				<path fill="#FFF9C5" d="M18.4,39.5L18.4,39.5c-1.3,0.1-2.7,0.3-4,0.7c-0.4,0.1-0.7,0.2-1.1,0.4l-0.1-0.1
					c-2.7-2.4-4.2-0.7-4.5-0.2c0.7-2.2,2.4-4.1,2.4-4.1c0.2-0.1,0.3-0.2,0.4-0.3h0c0.3,0.5,0.6,1,0.7,1.4c0.1,0.7,2,0.8,4.3,0.2
					c0,0,0,0,0,0c0,0,0.1,0,0.1,0c0,0,0,0,0,0C17.2,37.3,18.3,37.4,18.4,39.5z"/>
				<path fill="#FFFFD6" d="M17.9,9c0,0,1.2,3.3-1.4,5.1l0.4-1.7C16.9,12.4,17.8,11,17.9,9z"/>
				<path fill="#FFFFD6" d="M10.2,22.6c-0.7,0.3-1.4,0-1.4-0.1c0,0,0,0,0,0l-0.2,0c0,0,0-0.1,0-0.1c-0.1-0.2-0.2-0.3-0.4-0.3
					c0-0.2,0-0.3-0.1-0.5c0-0.4-0.1-0.7-0.1-0.9c-0.1-0.8-0.1-1.9-0.1-1.9c0.3-1.4,0.6-2.7,1.1-3.8c0.5-0.2,4.9-2.2,7.2-6.2
					c0,0,0,0,0,0c0.2-0.3,0.3-0.5,0.3-0.6c0,0,0,0,0,0l0.1,0c0.4,1.1,0.2,2.7-2.1,4.8c0.1-0.1,2.2-1.3,2.8-2.8h0
					c0,0.3-0.1,0.7-0.2,1.1c-0.1,0.3-0.2,0.7-0.3,1.1c-0.4,1.3-1.1,2.8-2.2,4.5l0,0c-1.8,2.5-4.5,3.6-4.5,3.6c1.6,0,2.1-0.4,2.2-0.5
					c-0.3,0.4-0.7,0.8-1.1,1.2c0,0,0.6-0.1,1.1-0.3c-0.3,0.4-0.7,0.6-0.7,0.6c0,0,0.1,0,0.1,0l0,0.1c0,0,0.4,1.2,0.4,2.6l-0.1,0
					c0-0.1,0-0.2-0.1-0.4l-0.2,0c0-0.1-0.1-0.1-0.1-0.2h0c0,0,0,0,0-0.1c-0.2-0.2-0.4-0.5-0.6-0.6c0,0,0,0,0,0
					C10.6,22.8,10.3,22.5,10.2,22.6C10.2,22.6,10.2,22.6,10.2,22.6z"/>
				<path fill="#FF753A" d="M16.7,31.7c0.3,0.1,0.5,0.3,0.4,0.6c0,0.1-0.1,0.2-0.2,0.3c0,0-0.2-0.6-0.7-0.4v0
					C16.6,32,16.7,31.7,16.7,31.7z"/>
				<path fill="#FFFFD6" d="M16.9,23.5c0.1,0.3-0.2,0.7-0.6,0.9c-0.5,0.2-1,0.1-1.1-0.3c-0.1-0.1-0.1-0.3,0-0.4
					c0.1-0.2,0.2-0.3,0.4-0.5c0,0,0,0,0,0c0.1,0,0.1-0.1,0.2-0.1c0.5-0.2,1-0.1,1.1,0.3C16.9,23.4,16.9,23.4,16.9,23.5z"/>
				<path fill="#FFFFD6" d="M16.6,8.2l-0.1,0c0,0,0,0,0,0c-0.1,0.2-0.2,0.4-0.3,0.6c0,0,0,0,0,0c-0.7,1.1-2.6,3.4-6.8,5.2
					c1.5-3.1,3.7-4.7,5.2-5.5c1.1-0.6,1.8-0.7,1.8-0.7l0.1,0C16.5,7.9,16.6,8,16.6,8.2z"/>
				<path fill="#FFF9C5" d="M16.2,32.2c0.5-0.2,0.7,0.4,0.7,0.4c-0.5,0.5-1.6,0.8-2.5,0.9c0,0,0,0,0,0c-0.4,0-0.7-0.1-0.9-0.2
					c0,0,0,0,0,0c0,0-0.1,0-0.1,0h0c-0.1-0.1-0.4-0.2-0.6-0.4c-0.1-0.6,0.4-0.6,0.4-0.6c0.8,0.3,1.9,0.2,1.9,0.2l0.4-0.2l0.3,0.2
					C16,32.3,16.1,32.3,16.2,32.2L16.2,32.2z"/>
				<path fill="#ED926D" d="M16.1,26.2c0,0.4-0.1,0.8-0.1,0.8s-1.1-1.1-0.9-2.1C15.1,24.9,16.1,25.8,16.1,26.2z"/>
				<path fill="#ED926D" d="M15.6,23.2c-0.2,0.2-0.3,0.3-0.4,0.5C15.2,23.5,15.4,23.3,15.6,23.2z"/>
				<path fill="#FFF9C5" d="M12.9,40.7c0.2-0.1,0.3-0.1,0.5-0.2c0.4-0.1,0.7-0.3,1.1-0.4l0.1,0.2c0,0-2.9,2.6-0.5,6.9
					c0,0-0.7,1.7,0,2.7l-0.9,0.7c-0.8-0.3-1.6-0.6-2.4-0.9c-0.3-1.2,0.1-2.6,0.3-3.3l-1.1-0.5c0,0,0,0,0-0.1c0-0.4-0.1-0.7-0.3-1.1
					l0.3-0.1c-0.1-0.9-0.5-1.5-0.5-1.5c0-1.6,1.9-2.4,2.5-2.6L12.9,40.7z"/>
				<path fill="#FFF9C5" d="M12,40.7c-0.6,0.2-2.5,1-2.5,2.6c0,0,0.4,0.7,0.5,1.5L9.6,45c-0.2-0.4-0.4-0.8-0.6-1.2
					c-0.3-0.4-0.5-0.6-0.5-0.6c0-0.1,0-0.2-0.1-0.3c-0.1-0.9,0-1.8,0.3-2.7l0,0c0.3-0.5,1.8-2.1,4.5,0.2l0.1,0.1
					c-0.2,0.1-0.3,0.1-0.5,0.2L12,40.7z"/>
				<path fill="#FF753A" d="M13.3,32.2c0,0-0.5,0-0.4,0.6c0,0,0,0-0.1-0.1c0,0,0,0,0,0c-0.2-0.2-0.4-0.5-0.5-1c0,0-0.3-0.2-0.6-0.6
					l0,0c0.1,0.1,0.3,0.2,0.8,0.3C12.6,31.9,12.9,32.1,13.3,32.2z"/>
				<path fill="#FFFFD6" d="M11.8,8.2c0,0,1.1-0.2,0.3,0.5c-0.5,0.1-1,0.2-1.6,0.4h0c-0.2-0.2-0.5-0.3-0.5-0.3s1.3-1.3,2.4-1.5
					C12.4,7.3,11.8,7.7,11.8,8.2z"/>
				<path fill="#FFFFD6" d="M12.1,24.2C12.1,24.2,12.1,24.2,12.1,24.2c0,0.7-0.2,1.4-0.6,2c0,0,0,0-0.1,0.1l0,0
					c-0.7,0.7-2.1,0.9-3.3,0.1c0-0.1,0-0.2,0-0.3C8.6,26.4,9,26.4,9,26.4c-0.3-0.2-0.6-0.3-0.8-0.5c0.1-0.9,0-1.8,0-2.7
					c0.3-0.2,0.4-0.5,0.4-0.7l0.2,0c0,0,0,0,0,0c0.2,0.3,0.6,0.4,0.6,0.4c-0.3,0-0.6,0.3-0.6,0.3c0.3-0.2,1-0.2,1-0.2
					c-0.3,0-0.6,0.4-0.6,0.4c1.4-0.9,2.4,0.7,2.4,0.7s-0.2-0.4,0.1-0.4h0c0,0,0.1,0.1,0.1,0.2l0.2,0C12,23.9,12,24,12.1,24.2
					L12.1,24.2z"/>
				<path fill="#FFFFD6" d="M12.1,8.7c0,0-0.8,0.4-1,1.4c0,0-0.5-0.4-0.5-0.7c0-0.1-0.1-0.2-0.1-0.3C11.1,8.9,11.6,8.8,12.1,8.7z"/>
				<path fill="#ED926D" d="M11.6,23.6C11.6,23.7,11.6,23.7,11.6,23.6c-0.3,0-0.1,0.4-0.1,0.4s-1-1.6-2.4-0.7c0,0,0.3-0.4,0.6-0.4
					c0,0-0.7,0-1,0.2c0,0,0.3-0.4,0.6-0.3c0,0-0.4-0.1-0.6-0.4c0.1,0,0.7,0.3,1.4,0.1c0,0,0,0,0,0c0.2,0.1,0.5,0.2,0.7,0.4
					c0,0,0,0,0,0C11.2,23.3,11.5,23.5,11.6,23.6z"/>
				<path fill="#ED926D" d="M10.2,22.6c0.1,0,0.4,0.2,0.7,0.4C10.7,22.8,10.4,22.7,10.2,22.6z"/>
				<path fill="#FFFFD6" d="M8.6,22.5c0,0.3-0.1,0.5-0.4,0.7c0-0.4-0.1-0.9-0.1-1.2c0.2,0,0.4,0.2,0.4,0.3
					C8.5,22.4,8.6,22.5,8.6,22.5z"/>
				<path fill="#FFFFD6" d="M8.2,25.9c0.2,0.2,0.5,0.4,0.8,0.5c0,0-0.4-0.1-0.8-0.4C8.2,26,8.2,26,8.2,25.9z"/>
				<path fill="#FFE8B9" d="M8.2,23.2c0.1,0.8,0.1,1.7,0,2.7c-1.1-1-1-2-1-2.5c0.2,0.1,0.5,0,0.7-0.1C8.1,23.3,8.1,23.3,8.2,23.2z"
					/>
				<path fill="#FFFFD6" d="M8.2,25.9c0,0.1,0,0.1,0,0.2c-0.6-0.4-1.3-1.2-1.3-2.8h0c0.1,0.1,0.2,0.2,0.3,0.2
					C7.2,23.9,7.1,24.9,8.2,25.9z"/>
				<path fill="#FFE8B9" d="M6.9,24.6C6.7,24,6.7,23.4,6.8,23c0,0,0,0.1,0,0.1c0,0,0,0.1,0.1,0.1c0,1.6,0.7,2.4,1.3,2.8
					c0,0.1,0,0.2,0,0.3c-0.2-0.1-0.3-0.3-0.5-0.4c-0.1-0.1-0.1-0.1-0.2-0.2C7.2,25.4,7,25,6.9,24.6z"/>
				<path fill="#FFFFD6" d="M8.2,23.2c-0.1,0.1-0.1,0.1-0.2,0.1c-0.2,0.1-0.5,0.1-0.7,0.1c0-0.1,0.1-0.2,0.1-0.2l-0.4,0h0
					c0,0,0-0.1-0.1-0.1c0,0,0-0.1,0-0.1c0-0.2,0.1-0.3,0.1-0.4c0,0,0,0,0,0l0,0c0.1-0.2,0.3-0.3,0.5-0.4C7.6,22,7.9,22,8.1,22
					C8.1,22.4,8.2,22.8,8.2,23.2z"/>
				<path fill="#FFE8B9" d="M8,21.6c0,0.1,0,0.3,0.1,0.5c-0.2,0-0.4,0-0.7,0.1c-0.2,0.1-0.4,0.3-0.5,0.4c0,0,0,0,0,0c0,0,0,0,0,0
					c0,0,0,0,0,0c0-0.1,0.1-0.2,0.1-0.2c0,0,0,0,0,0C7.3,21.9,7.6,21.7,8,21.6z"/>
				<path fill="#FFFFD6" d="M6.9,23.2l0.4,0c0,0,0,0.1-0.1,0.2C7.1,23.4,7,23.3,6.9,23.2z"/>
				<path fill="#ED926D" d="M6.5,23.4C6.4,23.4,6.4,23.3,6.5,23.4c-0.1,0,0-0.2,0.1-0.3c0.1-0.2,0.3-0.5,0.4-0.5c0,0,0,0,0,0
					c0,0,0,0,0,0c0,0,0,0,0,0c0,0,0,0,0,0c0,0,0,0,0,0c-0.1,0.1-0.1,0.2-0.1,0.3c0,0,0,0,0,0c-0.1,0.3-0.1,0.6-0.1,0.8
					C6.7,23.6,6.6,23.5,6.5,23.4z"/>
				<path fill="#FFFFD6" d="M6.9,22.6C6.9,22.6,6.9,22.6,6.9,22.6c0,0.1-0.1,0.3-0.1,0.4c0,0,0-0.1,0-0.1c0,0,0,0,0,0
					C6.8,22.7,6.9,22.6,6.9,22.6z"/>
				<path fill="#ED926D" d="M6.9,22.6c0,0.1-0.1,0.2-0.1,0.3C6.8,22.8,6.8,22.7,6.9,22.6z"/>
				<path fill="#ED926D" d="M6.8,23.8c0,0,0-0.1,0-0.1C6.7,23.8,6.8,23.8,6.8,23.8z"/>
				<g>
					<path fill="#FFC5A0" d="M39,25c-0.1-1-0.2-1.9-0.4-2.6l0,0c0.1-0.6,0.1-1.3,0.1-1.9c0-3.9-1.3-7.5-3.6-10.4
						C32.1,6.2,27.3,3.7,22,3.7c-2.6,0-5.1,0.7-7.4,1.8c-0.3,0.2-0.6,0.3-0.9,0.5C8.3,3.4,4.1,9.6,4.1,9.6c4.3-4,7.3-3.9,9-3.3
						C12,7,11,7.7,10.1,8.6C9.6,9,9,9.5,8.6,10.1c-1,1.2-1.8,2.7-2.3,4.8L6.3,15c-0.1,0.1-0.2,0.2-0.4,0.4c0,0,0,0,0,0
						c-0.2,0.2-0.4,0.4-0.7,0.6c-0.4,0.4-0.8,0.7-1.2,1l0,0c-0.6,1-1.8,1.4-1.9,1.4c1.3-0.2,2.9-1,2.9-1l0,0C4.9,18.1,4.7,19,4.7,20
						c0,0,0.5-2.1,1.6-3.1c-0.1,0.2-0.9,1.7-0.5,2.9L6.3,20c0,0,0.3-1,0.9-1.6c0.1-0.1,0.2-0.2,0.3-0.2c0,0-0.9,1.6-0.8,2.3l0.3,1
						l0,0c-0.7,1.1-2.3,3-4.6,3.8c0,0,2.3,0.1,4.1-1.9c0,0,0,0-0.1,0c0,0,0.1-0.1,0.1-0.3c0.1-0.3,0.3-0.5,0.4-0.7c0,0,0,0,0,0
						c0.3-0.4,0.7-0.6,1.1-0.7c0-0.4-0.1-0.7-0.1-0.9c-0.1-0.8-0.1-1.9-0.1-1.9c0.3-1.4,0.6-2.7,1.1-3.8c0.5-0.2,4.9-2.2,7.2-6.2
						c-0.7,1.1-2.6,3.4-6.8,5.2c1.5-3.1,3.7-4.7,5.2-5.5c1.1-0.6,1.8-0.7,1.8-0.7l0.1,0c0.1,0.1,0.1,0.3,0.2,0.5
						c0.4,1.1,0.2,2.7-2.1,4.8c0.1-0.1,2.2-1.3,2.8-2.8h0c0,0.3-0.1,0.7-0.2,1.1c-0.1,0.3-0.2,0.7-0.3,1.1c0,0,0.9-1.4,1-3.4
						c0,0,1.2,3.3-1.4,5.1l0.4-1.7c-0.4,1.3-1.1,2.8-2.2,4.5l0,0c-1.8,2.5-4.5,3.6-4.5,3.6c1.6,0,2.1-0.4,2.2-0.5
						c-0.3,0.4-0.7,0.8-1.1,1.2c0,0,0.6-0.1,1.1-0.3c-0.3,0.4-0.7,0.6-0.7,0.6c0,0,0.1,0,0.1,0c0.5-0.2,1-0.5,1.4-0.8
						c3.3-0.7,4.7-3.1,4.7-3.1c0.6-0.5,1-1,1.4-1.5c-0.2,1.1-0.7,2-1.1,2.8c-1.1,1.7-2.4,2.6-2.5,2.7c1.4-0.7,2.5-1.7,3.3-2.7
						c0.2-0.2,0.3-0.4,0.4-0.6l0,0c0.5-0.8,0.9-1.7,1.1-2.5c0.6-1.9,0.5-3.4,0.5-3.6c0.1-0.6,0.2-1,0.2-1.2c0,0,0,0,0,0
						c0.1-0.2,0.2-0.4,0.3,0c0,0,0,0,0,0c0.1,0.5,0.2,1.4,0.3,2.6c0,0.2,0,0.4,0.1,0.7c0,0.6,0.1,1.3,0.1,2.1
						c-0.4,1.3-0.8,2.3-1.1,3.1c-0.6,1.3-1,2-1.2,2.2c0,0,0,0,0,0c0.8-0.6,1.4-1.3,1.7-1.9c0.4-0.6,0.5-1.1,0.6-1.2
						c0,0.5,0,1-0.1,1.5c0,0.7-0.1,1.3-0.2,1.9c0,0.2-0.1,0.8-0.1,0.8c0.6-0.6,1.1-1.3,1.4-1.9c0.4-0.8,0.7-1.6,0.9-2.4
						c0.4-1.8,0.4-3.4,0.2-4.4c-0.1-0.8-0.2-1.2-0.2-1.2l0,0c0.3,0.6,0.6,1.3,1,2.1c0.2,0.4,0.4,0.8,0.7,1.2c1.5,2.5,0.9,5.3-0.1,7
						c0,0.1-0.1,0.1-0.1,0.2c0.1,0,0.9-0.6,1.5-1.5l0.3,0c0,0,0,0,0,0c-0.3,1.5-0.7,2.7-1.1,3.7c0.2,0,0.4,0.1,0.6,0.1
						c0.3-0.7,0.5-1.4,0.5-1.8c0,0,0.1,0.8,0.1,2c0.3,0,0.5,0.1,0.8,0.1c0.2,0,0.3,0.1,0.5,0.1c0-0.4-0.1-0.6-0.1-0.6
						c0,0.1,0.1,0.1,0.1,0.2c0,0,0.1,0.1,0.1,0.1c0.1,0.1,0.1,0.2,0.2,0.3c0.3,0,0.4,0.1,0.4,0.1l-0.2,0.3c0.1,0.1,0.2,0.2,0.3,0.4
						c0.2-0.2,0.4-0.3,0.7-0.4c0.2-0.1,0.5-0.2,0.8-0.2c0.1,0,0.2,0,0.3,0c0,0,0.1,0,0.1,0c0.3,0,0.6,0.2,0.9,0.5
						c0.1,0.1,0.1,0.1,0.2,0.2c0.2,0.3,0.4,0.8,0.4,1.4c0,0.4,0,0.9-0.2,1.4l0,0c-0.7,0.3-1.5,0.8-2.3,1.5c-0.5,0.4-1,0.9-1.4,1.5
						c-1.1,0.8-1.8,0.4-2.3,0.3c0,0-2.3,1.3-3,3.1l0,0c-3,1.2-3.7,3.6-3.7,3.6c0.6,0,1.2,0,1.8,0c1.4,0.1,2.5,0.2,3.3,0.2
						c0.1,0,0.3,0,0.4,0c0.9-0.1,1.6-0.7,2.1-1.4c0.7-0.9,1-1.8,1-1.8l0-0.1c0.6-0.1,1.4-0.3,2.4-0.6c0.8-0.2,1.5-0.6,2-1.1v0
						c0,0-1.2,3.5,0.5,5.1c0.3,0.2,0.6,0.5,1,0.6c-0.8-0.6-1.1-1.5-1.2-2.4c-0.1-0.9,0-1.9,0.2-2.7c0.3-1.1,0.6-1.9,0.7-1.9
						c0,0,0,0,0,0c0.2-0.3,0.4-0.7,0.6-1c0.5-0.9,0.6-1.6,0.6-1.6h0.2c2.1-0.7,2.5-3,2.5-3c0.1-0.1,0.1-0.2,0.1-0.2l0,0
						c0,0,0.3,3-0.7,5c0.5-1,1.3-2.6,1.5-4.8C39,26.7,39,25.8,39,25z M11.1,10.1c0,0-0.5-0.4-0.5-0.7c0-0.1-0.1-0.2-0.1-0.3h0
						c-0.2-0.2-0.5-0.3-0.5-0.3s1.3-1.3,2.4-1.5c0,0-0.6,0.4-0.7,0.9c0,0,1.1-0.2,0.3,0.5C12.1,8.7,11.4,9.1,11.1,10.1z M19.3,13.2
						c-0.4-0.4-1.5-0.2-1.5-0.2c0.5-0.5,0.5-1.2,0.5-1.2c1,0.1,1.2,0.7,1.2,0.7C19.5,12.9,19.3,13.2,19.3,13.2z M22.4,14.1
						c0.2-0.7-0.1-1.3-0.1-1.3c1.3,0.4,1.5,1.1,1.5,1.1C22.7,13.2,22.4,14.1,22.4,14.1z"/>
					<path fill="#FFC5A0" d="M28.1,26.1c-0.2,0-0.4,0-0.7-0.1c0,1.5-0.3,3.3-1.1,4.4C26.4,30.4,27.7,29.3,28.1,26.1z"/>
					<path fill="#FFC5A0" d="M23.8,28.8c1.3-0.9,2.1-1.9,2.6-2.9c-0.2,0-0.4,0-0.6-0.1C25,27.7,24.3,28.5,23.8,28.8z"/>
					<path fill="#FFC5A0" d="M8.1,28.5c-0.1-0.6-0.1-1.2,0-1.8c0-0.1,0-0.3,0-0.4c-0.2-0.1-0.3-0.3-0.5-0.4
						c-0.1-0.1-0.1-0.1-0.2-0.2C7.2,25.4,7,25,6.9,24.6C6.6,25.1,4.6,29,6,32.3c-0.3,0.3-0.6,0.7-0.8,1.2l0,0
						c-0.5,0.1-0.9,0.3-1.4,0.7c0,0,0,0,0,0c-0.4,0.3-0.8,0.8-0.9,1.4c-0.3,1.1-0.2,1.8,0,2.3c-0.8-0.2-2.7-0.9-3.7-3.1
						c0,0,0,0.9,0.4,1.6c0,0-0.3,0-0.5-0.2c0,0,0,0,0,0.1c0.2,0.3,0.9,1.5,2.8,2.1c0,0-0.5,0.4-1.1,0.9c-0.4,0.4-0.7,0.8-0.8,1.3
						c-0.3,1,0.8,2.6,2,3.2c0.3-0.1,0.5-0.2,0.8-0.3c0.2,0,0.4,0,0.6,0c0.1,0,0.1,0,0.2,0c0.7,0.1,1.5,0.4,2.1,0.9c0,0,0,0,0,0
						c0.5,0.3,1,0.8,1.4,1.1c0-0.1,0.1-0.1,0.1-0.2c0.1-0.1,0.2-0.2,0.3-0.3l0,0c0,0-1.5-1.2-1.7-2.5c0-0.3-0.1-0.6-0.2-0.9
						c-0.4-1.2-1.1-2.5-1.1-2.5C4.8,38.8,5,38.8,5,38.8c2.1,0,3.5-2.6,3.5-2.6c0.1,0,0.3,0.1,0.4,0.1c0.7,0.1,1.6,0.1,2.2-0.2
						c0.2-0.1,0.3-0.2,0.4-0.3h0c-0.3-0.5-0.6-0.8-0.6-0.8C9.5,33.4,8.4,30.7,8.1,28.5z M2.2,41C2,41.6,2,42.4,2.4,43.2
						c0,0-0.7-0.4-1-1.2c-0.1-0.3-0.1-0.7-0.1-1c0,0,0.2-0.3,0.6-0.6c0.3-0.2,0.6-0.5,1-0.7C2.8,39.7,2.4,40.2,2.2,41z M6.5,28.5
						c0.2-0.6,0.4-1.1,0.6-1.5h0c0,0-0.4,2.3,0.2,3.7h0c0,0.2,0,0.5,0,0.7c0,0,0,0-0.1,0.1C7,31.6,6.7,31.7,6.3,32
						C6.1,30.7,6.2,29.5,6.5,28.5z"/>
				</g>
			</g>
			<path fill="#FFFFD6" d="M16.9,12.4c0,0,0.9-1.4,1-3.4c0,0,1.2,3.3-1.4,5.1L16.9,12.4z"/>
			<g>
				<path fill="#ED926D" d="M16.4,7.8c-1.2,0.3-2.2,1-3.2,1.7c-0.2,0.2-0.5,0.4-0.7,0.6c-0.2,0.2-0.4,0.4-0.6,0.6
					c-0.4,0.4-0.8,0.9-1.2,1.4l-0.5,0.8c-0.2,0.2-0.3,0.5-0.4,0.8c-0.1,0.3-0.3,0.5-0.4,0.8L9,15.3c-0.2,0.6-0.4,1.2-0.6,1.7
					c-0.1,0.6-0.3,1.2-0.4,1.8l0,0l0.1,1.7c0,0.6,0.1,1.1,0.2,1.7c0.1,1.1,0.2,2.3,0.2,3.4c0,0.6-0.1,1.1-0.2,1.7
					c0,0.5,0,1.1,0.1,1.6C8.6,29.9,8.9,31,9.3,32c0.4,1,1,2,1.7,2.8c0.4,0.5,0.7,0.9,1,1.4c0.1,0.3,0.3,0.5,0.3,0.8
					c0,0.1,0,0.2,0,0.2c0,0.1,0.1,0.1,0.1,0.1c0,0.1,0.2,0.1,0.3,0.2c0.5,0.2,1.1,0.2,1.6,0.2c0.6,0,1.1-0.1,1.7-0.2
					c1.1-0.2,2.2-0.6,3.2-1c-1,0.5-2.1,0.9-3.2,1.2c-0.5,0.1-1.1,0.2-1.7,0.3c-0.6,0-1.1,0-1.7-0.1c-0.1-0.1-0.3-0.1-0.4-0.3
					c-0.1-0.1-0.1-0.1-0.1-0.2c-0.1-0.1,0-0.1-0.1-0.2c-0.1-0.3-0.2-0.5-0.3-0.7c-0.3-0.5-0.6-0.9-0.9-1.3C10,34.2,9.4,33.2,9,32.2
					c-0.5-1-0.8-2.1-1-3.3c-0.1-0.6-0.1-1.1-0.1-1.7C7.9,26.6,8,26,8,25.5c0-1.1,0-2.2-0.1-3.3c0-0.6-0.1-1.1-0.2-1.7l-0.1-1.7l0,0
					l0,0c0.1-0.6,0.3-1.2,0.4-1.8c0.2-0.6,0.4-1.2,0.6-1.7L9,14.3c0.1-0.3,0.3-0.5,0.4-0.8c0.2-0.3,0.3-0.5,0.5-0.8l0.5-0.8
					c0.4-0.5,0.8-1,1.2-1.4c0.2-0.2,0.4-0.4,0.7-0.6c0.2-0.2,0.5-0.4,0.7-0.6C14.1,8.7,15.2,8.1,16.4,7.8z"/>
			</g>
			<ellipse transform="matrix(0.9161 -0.4009 0.4009 0.9161 -8.1656 8.411)" fill="#FFFFD6" cx="16" cy="23.7" rx="0.9" ry="0.7"/>
			
				<ellipse transform="matrix(0.9161 -0.4009 0.4009 0.9161 -8.4721 4.9899)" fill="#FFFFD6" cx="7.7" cy="22.7" rx="0.9" ry="0.7"/>
			<path fill="#FFFFD6" d="M19.8,24.9c0,0-1.1,0.1-1.5-0.9c0,0,0.9-1.2,2.2-0.4C21.7,24.4,19.8,24.9,19.8,24.9z"/>
			<path fill="#FFFFD6" d="M12.1,8.7c0,0-0.8,0.4-1,1.4c0,0-0.4-0.4-0.5-0.7s-0.6-0.5-0.6-0.5s1.3-1.3,2.4-1.5c0,0-0.6,0.4-0.7,0.9
				C11.8,8.2,12.8,8,12.1,8.7z"/>
			<g opacity="0.5">
				<path fill="#FFAB70" d="M21.6,39.8c-0.3,0.3-0.4,0.7-0.5,1.1c0,0.4,0,0.8,0.1,1.2c0.2,0.8,0.5,1.6,0.8,2.4l0,0.1l0,0.1
					c-0.1,0.5-0.2,1.1-0.2,1.7c0,0.6,0.2,1.1,0.5,1.7c-0.4-0.4-0.7-1-0.8-1.6c-0.1-0.6-0.1-1.2,0.1-1.8l0,0.1
					c-0.2-0.4-0.4-0.8-0.5-1.2c-0.1-0.4-0.2-0.8-0.3-1.3c-0.1-0.4-0.1-0.9,0-1.3C21,40.4,21.2,40,21.6,39.8z"/>
			</g>
			<g opacity="0.5">
				<path fill="#FFAB70" d="M25.3,39.9c-0.2,0.8-0.3,1.7-0.2,2.5c0,0.4,0.1,0.8,0.2,1.2c0.1,0.4,0.3,0.8,0.4,1.2l0,0l0,0
					c0.1,0.4,0.2,0.9,0.4,1.3c0.2,0.4,0.4,0.8,0.8,1.1c-0.4-0.2-0.8-0.5-1-1c-0.2-0.4-0.4-0.9-0.5-1.3l0,0.1
					c-0.2-0.4-0.4-0.8-0.5-1.2c-0.1-0.4-0.2-0.9-0.2-1.3c0-0.4,0.1-0.9,0.2-1.3C24.9,40.7,25.1,40.3,25.3,39.9z"/>
			</g>
			<g opacity="0.5">
				<path fill="#FFAB70" d="M8.7,40.3c0,0,0.1-0.3,0.5-0.7c0.2-0.2,0.4-0.4,0.8-0.5c0.3-0.1,0.7-0.2,1.1-0.1c0.4,0.1,0.7,0.2,1,0.3
					c0.3,0.1,0.5,0.3,0.7,0.5c0.2,0.2,0.3,0.3,0.4,0.4c0.1,0.1,0.2,0.2,0.2,0.2S13,40.2,12.6,40c-0.1-0.1-0.2-0.1-0.3-0.2
					c-0.1-0.1-0.3-0.1-0.4-0.2c-0.3-0.1-0.6-0.2-0.9-0.2c-0.6-0.1-1.2,0.1-1.6,0.4C8.9,40,8.7,40.3,8.7,40.3z"/>
			</g>
			<g>
				<path fill="#ED926D" d="M33.4,35.3c0,0,0.1,0,0.3-0.1c0.2,0,0.5-0.1,0.8-0.2c0.4-0.1,0.8-0.3,1.2-0.6c0.4-0.3,0.9-0.7,1.2-1.2
					c0.7-1.1,1.3-2.5,1.6-4.1c0.3-1.6,0.3-3.3,0.1-5c-0.1-0.9-0.3-1.7-0.5-2.5c-0.3-0.8-0.6-1.6-0.9-2.4c-0.6-1.5-1.1-3-1.5-4.2
					c-0.9-2.5-1.4-4.1-1.4-4.1s0.7,1.6,1.7,4c0.5,1.2,1.1,2.6,1.7,4.2c0.3,0.8,0.6,1.5,0.9,2.4c0.2,0.8,0.4,1.7,0.5,2.6
					c0.2,1.8,0.2,3.5-0.2,5.2c-0.4,1.6-1,3-1.8,4.1c-0.4,0.6-0.9,0.9-1.3,1.2c-0.5,0.3-0.9,0.4-1.3,0.6c-0.4,0.1-0.7,0.2-0.9,0.2
					C33.5,35.2,33.4,35.3,33.4,35.3z"/>
			</g>
			<g>
				<path fill="#ED926D" d="M38.1,27.5c0,0,0.1,0.3,0.1,0.8c0,0.5,0,1.1,0,1.8c-0.1,0.6-0.2,1.3-0.4,1.7c-0.1,0.2-0.2,0.4-0.2,0.5
					c-0.1,0.1-0.1,0.2-0.1,0.2s0.1-0.3,0.2-0.8c0.1-0.5,0.2-1.1,0.3-1.7C38.1,28.8,38.1,27.5,38.1,27.5z"/>
			</g>
			<g>
				<path fill="#ED926D" d="M35.2,18.9c0,0,0.2,0.4,0.6,1c0.3,0.6,0.8,1.4,1.2,2.2c0.5,0.8,0.7,1.7,0.8,2.4c0.1,0.7,0,1.1,0,1.1
					s0-0.5-0.1-1.1c-0.2-0.7-0.4-1.5-0.9-2.3c-0.4-0.8-0.8-1.6-1.1-2.2C35.4,19.3,35.2,18.9,35.2,18.9z"/>
			</g>
			<g>
				<path fill="#ED926D" d="M29,12.5c0,0,0.4,0.8,1.2,2c0.4,0.6,0.8,1.2,1.3,1.9c0.5,0.7,1.1,1.4,1.8,2c0.7,0.6,1.3,1.3,1.9,1.9
					c0.6,0.6,1.1,1.3,1.5,1.8c0.8,1.1,1.1,2,1.1,2s-0.4-0.8-1.3-1.9c-0.4-0.5-1-1.1-1.6-1.7c-0.6-0.6-1.2-1.3-1.9-1.9
					c-0.7-0.6-1.3-1.4-1.8-2.1c-0.5-0.7-0.9-1.4-1.2-2C29.3,13.4,29,12.5,29,12.5z"/>
			</g>
			<g>
				<path fill="#ED926D" d="M23.9,12.6c0.5,1.7,0.6,3.6,0.2,5.3c0,0.2-0.1,0.4-0.1,0.7l-0.2,0.7c-0.2,0.4-0.3,0.9-0.5,1.3
					c-0.2,0.4-0.4,0.8-0.7,1.2c-0.2,0.4-0.6,0.7-0.9,1.1l-0.4,0.6l0.1-0.7c0-0.5,0.1-1,0.2-1.5c0.1-0.5,0.1-1,0.1-1.5
					c0.1-1,0.1-2,0.1-3c0-2-0.2-4-0.4-6c0.4,2,0.6,4,0.7,6c0.1,1,0,2,0,3c0,0.5-0.1,1-0.1,1.5l-0.2,1.5l-0.4-0.2
					c0.3-0.3,0.6-0.6,0.8-1c0.3-0.4,0.5-0.7,0.7-1.1c0.2-0.4,0.4-0.8,0.5-1.2l0.2-0.6c0.1-0.2,0.1-0.4,0.2-0.6
					c0.2-0.9,0.3-1.7,0.3-2.6C24.2,14.4,24.1,13.5,23.9,12.6z"/>
			</g>
			<g>
				<path fill="#ED926D" d="M23.2,10.5c0.4,1,0.9,2,1.4,3c0.2,0.5,0.5,1,0.8,1.5l0.4,0.7c0.1,0.3,0.3,0.5,0.4,0.8
					c0.5,1.1,0.7,2.2,0.5,3.4c-0.1,1.1-0.5,2.2-1.1,3.2l-0.2-0.2c0.7-0.4,1.3-1.1,1.7-1.8c0.4-0.7,0.6-1.6,0.6-2.4
					c0,0.2,0.1,0.4,0,0.6c0,0.2,0,0.4,0,0.6c-0.1,0.4-0.2,0.9-0.4,1.2c-0.2,0.4-0.4,0.8-0.7,1.1c-0.3,0.3-0.6,0.6-1,0.9l-0.6,0.4
					l0.4-0.7c0.5-0.9,0.9-2,1-3.1c0.1-1.1,0-2.2-0.5-3.2c-0.1-0.2-0.2-0.5-0.4-0.7L25,15.2c-0.3-0.5-0.5-1-0.7-1.5
					C23.8,12.6,23.5,11.6,23.2,10.5z"/>
			</g>
			<g>
				<path fill="#ED926D" d="M26.3,14.4c0,0,0.3,1,0.4,2.1c0.1,0.5,0.1,1.1,0.1,1.5c0,0.4-0.1,0.7-0.1,0.7l-0.4-0.1
					c0,0,0.1-0.2,0.1-0.6c0.1-0.4,0.1-0.9,0.1-1.5C26.5,15.4,26.3,14.4,26.3,14.4z"/>
			</g>
			<path fill="none" stroke="#ED926D" stroke-width="0.2228" stroke-miterlimit="25" d="M21.9,18.4c0,0-0.5,1.8-2.3,3.1
				c0,0,1.2-1.5,2.3-5.4"/>
			<path fill="none" stroke="#ED926D" stroke-width="0.4457" stroke-miterlimit="10" d="M21.9,16.5"/>
			<g>
				<path fill="#ED926D" d="M21.2,10.7c0,0,0,0.7-0.2,1.7c-0.1,0.5-0.3,1.1-0.5,1.7c-0.1,0.3-0.3,0.6-0.4,0.9
					c-0.2,0.3-0.3,0.6-0.5,0.9c-0.2,0.3-0.4,0.6-0.6,0.8c-0.2,0.3-0.4,0.5-0.7,0.7c-0.2,0.2-0.5,0.4-0.7,0.6
					c-0.2,0.2-0.5,0.3-0.7,0.4c-0.4,0.3-0.8,0.4-1.1,0.5c-0.3,0.1-0.4,0.2-0.4,0.2s0.2-0.1,0.4-0.2c0.3-0.1,0.7-0.3,1.1-0.6
					c0.2-0.1,0.4-0.3,0.7-0.5c0.2-0.2,0.5-0.4,0.7-0.6c0.2-0.2,0.5-0.4,0.7-0.7c0.2-0.2,0.4-0.5,0.6-0.8c0.8-1.1,1.2-2.4,1.5-3.4
					C21.1,11.3,21.2,10.7,21.2,10.7z"/>
			</g>
			<g>
				<path fill="#ED926D" d="M18.5,15.5c0,0-0.1,0.3-0.3,0.8c-0.2,0.5-0.7,1-1.2,1.5c-0.3,0.2-0.6,0.4-0.8,0.6
					c-0.1,0.1-0.3,0.2-0.4,0.2c-0.1,0.1-0.3,0.1-0.4,0.2C15.1,19,14.9,19,14.7,19c-0.1,0-0.2,0.1-0.2,0.1s0.1,0,0.2-0.1
					c0.1-0.1,0.3-0.1,0.6-0.3c0.2-0.1,0.5-0.3,0.8-0.4c0.3-0.2,0.5-0.4,0.8-0.6c0.5-0.5,0.9-1,1.2-1.4
					C18.4,15.8,18.5,15.5,18.5,15.5z"/>
			</g>
			<path fill="none" stroke="#ED926D" stroke-width="0.2228" stroke-miterlimit="25" d="M17.9,17.6c0,0-1.5,2.4-4.8,3.1"/>
			<g>
				<path fill="#ED926D" d="M14.5,19.4c-0.3,0.5-0.8,0.9-1.2,1.3c-0.5,0.4-1,0.7-1.6,0.9l-0.4,0.1l0.3-0.3c0.5-0.4,1-0.9,1.3-1.4
					c-0.3,0.6-0.7,1.1-1.2,1.6l-0.1-0.2C12.7,21,13.7,20.3,14.5,19.4z"/>
			</g>
			<path fill="none" stroke="#ED926D" stroke-width="0.2228" stroke-miterlimit="25" d="M12.4,19.9c0,0-0.4,0.5-2.2,0.5
				c0,0,3.2-1.3,4.9-4.2"/>
			<path fill="none" stroke="#ED926D" stroke-width="0.2228" stroke-miterlimit="25" d="M17.1,11.3c-0.5,2.4-2,5.8-5.9,9.9
				c0,0,0.6-0.1,1.1-0.3"/>
			<g>
				<path fill="#ED926D" d="M17,7.3c0,0,0.1,0.2,0.2,0.6c0.1,0.4,0.2,0.9,0.2,1.4c0,1-0.1,2-0.1,2l-0.2,0c0,0,0.2-1,0.3-2
					c0-0.5,0-1-0.1-1.4C17.1,7.6,17,7.3,17,7.3z"/>
			</g>
			<path fill="none" stroke="#ED926D" stroke-width="0.2228" stroke-miterlimit="25" d="M20.5,15.7c-0.6,2-1.9,4.5-4.8,5.8
				c0,0,2.8-1.8,3.6-5.4"/>
			<g>
				<path fill="#ED926D" d="M21,12.1c0,0,0,0.9-0.1,1.8c-0.1,0.9-0.3,1.8-0.3,1.8l-0.2-0.1c0,0,0.3-0.9,0.4-1.7
					C21,13,21,12.1,21,12.1z"/>
			</g>
			<g>
				<path fill="#ED926D" d="M26.3,8.1c0.4,0.5,0.7,1,1,1.5c0.3,0.5,0.5,1.1,0.8,1.6c0.2,0.6,0.4,1.1,0.6,1.7
					c0.1,0.3,0.1,0.6,0.2,0.9c0.1,0.3,0.1,0.6,0.2,0.9c0.1,0.6,0.1,1.2,0.2,1.8c0,0.6,0,1.2-0.1,1.8c-0.1,0.3-0.1,0.6-0.1,0.9
					L28.7,20c-0.1,0.6-0.4,1.1-0.6,1.7l-0.4,1l0.2-1.1c0.2-0.8,0.2-1.7,0-2.5c0.2,0.8,0.3,1.7,0.1,2.6l-0.1,0
					c0.2-0.6,0.4-1.1,0.6-1.7l0.2-0.9c0.1-0.3,0.1-0.6,0.1-0.9c0.1-0.6,0.1-1.2,0.1-1.8c0-0.6,0-1.2-0.1-1.8c0-0.3-0.1-0.6-0.1-0.9
					c-0.1-0.3-0.1-0.6-0.2-0.9c-0.2-0.6-0.3-1.1-0.5-1.7C27.5,10.2,27,9.1,26.3,8.1z"/>
			</g>
			<g>
				<path fill="#ED926D" d="M14.7,7.3C14,6.6,13,6.2,12,6.1c-1-0.1-2,0-2.9,0.4C7.2,7.1,5.6,8.4,4.2,9.7l-0.7,0.6L4,9.6
					c0.7-0.9,1.4-1.7,2.3-2.5c0.9-0.7,1.9-1.3,3-1.6c1.1-0.3,2.3-0.3,3.3,0c0.5,0.2,1.1,0.4,1.5,0.7c0.5,0.3,0.9,0.6,1.3,1
					c-0.4-0.4-0.9-0.7-1.4-1c-0.2-0.1-0.5-0.3-0.7-0.4c-0.3-0.1-0.5-0.2-0.8-0.3c-1.1-0.3-2.2-0.3-3.3,0C8.3,6,7.3,6.6,6.4,7.3
					C5.6,8,4.8,8.8,4.2,9.7L4,9.5c1.5-1.3,3.1-2.6,5-3.2C10,6,11,5.8,12,6C13,6.1,14,6.6,14.7,7.3z"/>
			</g>
			<g>
				<path fill="#ED926D" d="M15.1,6.4c0,0-0.1-0.3-0.4-0.7c-0.3-0.4-0.7-0.9-1.2-1.2c-0.5-0.4-1.1-0.6-1.6-0.8
					c-0.5-0.2-0.8-0.2-0.8-0.2s0.1,0,0.2,0c0.1,0,0.3,0,0.6,0.1C12.4,3.7,13,4,13.5,4.3c0.5,0.4,1,0.9,1.2,1.3
					C15,6.1,15.1,6.4,15.1,6.4z"/>
			</g>
			<g>
				<path fill="#ED926D" d="M27.4,22.8c-0.1,1.3-0.5,2.5-1.1,3.6c-0.3,0.5-0.7,1.1-1.2,1.5c-0.2,0.2-0.5,0.4-0.7,0.6
					c-0.2,0.2-0.5,0.4-0.8,0.6l-0.1-0.2c0.3-0.2,0.5-0.4,0.8-0.7c0.2-0.3,0.4-0.5,0.6-0.8c0.4-0.6,0.7-1.2,1-1.9
					c0.3-0.7,0.5-1.3,0.7-2c0.2-0.7,0.4-1.4,0.6-2.1c-0.1,0.7-0.3,1.4-0.5,2.1c-0.2,0.7-0.4,1.4-0.7,2c-0.3,0.7-0.6,1.3-1,1.9
					c-0.2,0.3-0.4,0.6-0.6,0.9c-0.2,0.3-0.5,0.5-0.9,0.7L23.4,29c0.3-0.2,0.5-0.3,0.8-0.5c0.2-0.2,0.5-0.4,0.7-0.6
					c0.5-0.4,0.8-0.9,1.2-1.5c0.3-0.5,0.6-1.1,0.8-1.7C27.1,24.1,27.3,23.4,27.4,22.8z"/>
			</g>
			<g>
				<path fill="#ED926D" d="M23.6,29.1c0,0-0.6,0.4-1.2,0.5c-0.3,0.1-0.6,0.1-0.9,0.1c-0.2,0-0.4-0.1-0.4-0.1s0.2,0.1,0.4,0.1
					c0.2,0,0.6,0,0.9-0.1c0.6-0.2,1.1-0.6,1.1-0.6L23.6,29.1z"/>
			</g>
			<g>
				<path fill="#ED926D" d="M27.6,21c0,0,0.1,0.4,0.2,1c0.2,0.6,0.4,1.4,0.8,2.1c0.2,0.4,0.4,0.7,0.7,1c0.3,0.3,0.5,0.5,0.8,0.7
					c0.3,0.2,0.5,0.3,0.6,0.4c0.2,0.1,0.3,0.1,0.3,0.1s-0.1,0-0.3-0.1c-0.2-0.1-0.4-0.2-0.7-0.3c-0.3-0.2-0.6-0.4-0.9-0.7
					c-0.3-0.3-0.5-0.6-0.8-1c-0.4-0.8-0.7-1.6-0.8-2.2C27.6,21.4,27.6,21,27.6,21z"/>
			</g>
			<g>
				<path fill="#ED926D" d="M27.3,23.5c0.2,1.2,0.3,2.4,0.2,3.6c0,0.6-0.1,1.2-0.3,1.8c-0.1,0.3-0.2,0.6-0.3,0.9
					c-0.1,0.3-0.3,0.5-0.5,0.8l-0.2-0.2c0.4-0.3,0.7-0.8,0.9-1.2c0.2-0.5,0.4-0.9,0.6-1.4c0.3-1,0.5-2,0.5-3c0,0.5,0,1-0.1,1.6
					c-0.1,0.5-0.2,1-0.3,1.5c-0.1,0.5-0.3,1-0.6,1.5c-0.2,0.5-0.5,0.9-0.9,1.3l-0.7,0.6l0.5-0.7c0.2-0.2,0.3-0.5,0.4-0.8
					c0.1-0.3,0.2-0.5,0.3-0.8c0.2-0.6,0.3-1.2,0.3-1.8C27.4,25.9,27.4,24.7,27.3,23.5z"/>
			</g>
			<g>
				<path fill="#ED926D" d="M27.4,21.6c0.2,0.8,0.4,1.6,0.7,2.4c0.3,0.8,0.8,1.5,1.2,2.1c0.5,0.7,0.9,1.4,1.1,2.2
					c0.1,0.4,0.1,0.9,0,1.3c0,0.2-0.1,0.4-0.2,0.6c-0.1,0.2-0.2,0.4-0.2,0.6l-0.2,0.5l0-0.5c0.1-0.9,0-1.8-0.2-2.7
					c-0.1-0.4-0.2-0.9-0.4-1.3c-0.2-0.4-0.4-0.8-0.5-1.3c0.1,0.4,0.3,0.9,0.5,1.3c0.2,0.4,0.4,0.8,0.5,1.3c0.2,0.9,0.3,1.8,0.3,2.7
					l-0.2,0c0.1-0.2,0.2-0.4,0.2-0.6c0.1-0.2,0.1-0.4,0.1-0.6c0.1-0.4,0-0.8,0-1.2c-0.2-0.8-0.6-1.5-1.1-2.2
					c-0.5-0.7-0.9-1.4-1.2-2.2C27.7,23.2,27.5,22.4,27.4,21.6z"/>
			</g>
			<g>
				<path fill="#ED926D" d="M28.1,28.3c0,0,0.1-0.3,0.3-0.6c0.2-0.4,0.5-0.8,0.9-1.2c0.2-0.2,0.5-0.3,0.7-0.4
					c0.2-0.1,0.5-0.2,0.7-0.2c0.4-0.1,0.7,0,0.7,0c0,0-0.1,0-0.2,0c-0.1,0-0.3,0-0.5,0.1c-0.2,0-0.4,0.1-0.6,0.2
					c-0.2,0.1-0.4,0.3-0.6,0.5c-0.4,0.3-0.7,0.8-1,1.1C28.2,28.1,28.1,28.3,28.1,28.3z"/>
			</g>
			<g>
				<path fill="#ED926D" d="M28.6,25.1c0,0,0.1,0.2,0.1,0.5c0,0.3,0,0.7,0,1.2c-0.1,0.4-0.2,0.8-0.3,1.1c-0.1,0.3-0.2,0.5-0.2,0.5
					s0.1-0.2,0.1-0.5c0.1-0.3,0.2-0.7,0.2-1.1c0.1-0.4,0.1-0.8,0.1-1.1C28.6,25.3,28.6,25.1,28.6,25.1z"/>
			</g>
			<g>
				<path fill="#ED926D" d="M14.5,8.5c0,0-0.8,0-2,0.2c-0.3,0.1-0.6,0.1-1,0.2c-0.3,0.1-0.7,0.2-1.1,0.3c-0.4,0.1-0.7,0.3-1.1,0.5
					c-0.3,0.2-0.7,0.4-1,0.6c-0.3,0.2-0.7,0.5-0.9,0.8c-0.1,0.1-0.3,0.3-0.4,0.4c-0.1,0.2-0.2,0.3-0.3,0.5c-0.2,0.3-0.4,0.6-0.6,0.9
					c-0.2,0.3-0.3,0.6-0.4,0.9c-0.1,0.3-0.2,0.6-0.3,0.8c0,0.2-0.1,0.5-0.1,0.6c-0.1,0.4-0.1,0.6-0.1,0.6s0-0.2,0.1-0.6
					c0-0.2,0-0.4,0.1-0.6c0-0.3,0.1-0.5,0.2-0.8c0.1-0.3,0.2-0.6,0.4-0.9c0.2-0.3,0.3-0.7,0.6-1c0.1-0.2,0.2-0.3,0.3-0.5
					C7,11.3,7.1,11.2,7.3,11c0.3-0.3,0.6-0.6,0.9-0.8c0.3-0.3,0.7-0.4,1.1-0.6c0.4-0.2,0.7-0.4,1.1-0.5c0.4-0.1,0.7-0.2,1.1-0.3
					c0.3-0.1,0.7-0.1,1-0.2C13.7,8.4,14.5,8.5,14.5,8.5z"/>
			</g>
			<g>
				<path fill="#ED926D" d="M16.5,8.2c0,0-0.2,0.5-0.8,1.2c-0.5,0.7-1.4,1.6-2.3,2.3c-0.9,0.7-1.9,1.3-2.7,1.7
					c-0.8,0.4-1.3,0.6-1.3,0.6L9.3,14c0,0,0.5-0.2,1.3-0.6c0.8-0.4,1.8-1,2.7-1.7c0.9-0.7,1.8-1.5,2.3-2.2
					C16.3,8.8,16.5,8.2,16.5,8.2z"/>
			</g>
			<g>
				<path fill="#ED926D" d="M8.8,14.9c0,0,0.6-0.2,1.4-0.7c0.8-0.5,1.9-1.2,2.9-2c0.5-0.4,1-0.9,1.4-1.3c0.4-0.4,0.8-0.9,1.1-1.3
					c0.3-0.4,0.5-0.7,0.6-1c0.1-0.2,0.2-0.4,0.2-0.4s-0.1,0.1-0.2,0.4c-0.1,0.3-0.3,0.6-0.6,1c-0.3,0.4-0.6,0.9-1,1.3
					c-0.4,0.5-0.9,0.9-1.4,1.4c-1,0.9-2.1,1.6-2.9,2.1c-0.8,0.5-1.5,0.8-1.5,0.8L8.8,14.9z"/>
			</g>
			<g>
				<path fill="#ED926D" d="M21.9,35.3c0,0,0.5-0.3,1.2-0.9c0.4-0.3,0.8-0.6,1.2-0.9c0.4-0.3,0.9-0.7,1.3-1.1
					c0.2-0.2,0.4-0.4,0.6-0.6c0.2-0.2,0.4-0.4,0.6-0.6c0.2-0.2,0.4-0.4,0.7-0.5c0.1-0.1,0.3-0.1,0.4-0.1c0.1,0,0.2,0,0.3-0.1
					c0.3-0.2,0.6-0.5,0.7-0.7c0.1-0.2,0.2-0.3,0.2-0.3s0,0.1-0.2,0.4c-0.1,0.2-0.3,0.6-0.6,0.9c-0.1,0.1-0.2,0.1-0.4,0.2
					c-0.1,0-0.2,0.1-0.3,0.1c-0.2,0.1-0.4,0.3-0.6,0.5c-0.2,0.2-0.3,0.4-0.5,0.6c-0.2,0.2-0.4,0.4-0.6,0.6c-0.4,0.4-0.9,0.8-1.4,1.1
					c-0.4,0.3-0.9,0.6-1.3,0.8C22.5,35,21.9,35.3,21.9,35.3z"/>
			</g>
			<g>
				<path fill="#ED926D" d="M16.6,37.5c0,0,0.2-0.1,0.5-0.1c0.3,0,0.8,0.2,1,0.5c0.2,0.4,0.3,0.8,0.4,1.1c0,0.3,0,0.5,0,0.5
					s0-0.2-0.1-0.5c-0.1-0.3-0.2-0.7-0.4-1c-0.2-0.3-0.6-0.5-0.8-0.5C16.8,37.4,16.6,37.5,16.6,37.5z"/>
			</g>
			<g>
				<path fill="#ED926D" d="M25.3,32.6c0,0,0.2-0.1,0.6-0.2c0.1,0,0.2,0,0.3,0c0.1,0,0.2,0,0.3,0.1c0.2,0.1,0.4,0.2,0.6,0.2
					c0.4,0.1,0.9,0,1.2-0.2c0.3-0.2,0.5-0.3,0.5-0.3s-0.2,0.2-0.5,0.4c-0.3,0.2-0.8,0.4-1.3,0.3c-0.2,0-0.5-0.1-0.7-0.1
					c-0.1,0-0.2,0-0.3,0c-0.1,0-0.2,0-0.2,0c-0.3,0.1-0.5,0.2-0.5,0.2L25.3,32.6z"/>
			</g>
			<g>
				<path fill="#ED926D" d="M31.9,26c0,0,0.2,0.1,0.4,0.4c0.2,0.3,0.4,0.7,0.5,1.1c0.1,0.5,0.1,0.9,0,1.3c-0.1,0.3-0.1,0.6-0.1,0.6
					l-0.2-0.1c0,0,0.1-0.2,0.2-0.5c0.1-0.3,0.2-0.8,0.1-1.2c-0.1-0.4-0.2-0.9-0.4-1.1C32.1,26.2,31.9,26,31.9,26z"/>
			</g>
			<g>
				<path fill="#ED926D" d="M2.4,25.3c0,0,0.3,0,0.7-0.1c0.4-0.1,1-0.3,1.5-0.5c0.5-0.3,1-0.6,1.3-0.9c0.2-0.1,0.3-0.3,0.4-0.4
					c0.1-0.1,0.1-0.1,0.1-0.1l0.2,0.1c0,0-0.1,0.1-0.1,0.1c-0.1,0.1-0.2,0.2-0.4,0.4c-0.3,0.3-0.8,0.6-1.4,0.9
					c-0.5,0.2-1.1,0.4-1.6,0.5C2.7,25.3,2.4,25.3,2.4,25.3z"/>
			</g>
			<g>
				<path fill="#ED926D" d="M7.5,20.7c0,0-0.2,0.4-0.5,1c-0.4,0.6-0.9,1.3-1.5,1.9c-0.3,0.3-0.7,0.6-1,0.8c-0.3,0.2-0.7,0.4-1,0.6
					c-0.3,0.1-0.6,0.2-0.8,0.3c-0.2,0.1-0.3,0.1-0.3,0.1s0.1,0,0.3-0.1c0.2-0.1,0.4-0.2,0.7-0.4c0.3-0.2,0.6-0.4,0.9-0.6
					c0.3-0.2,0.7-0.5,1-0.8C6.6,22.2,7.5,20.7,7.5,20.7z"/>
			</g>
			<g>
				<path fill="#ED926D" d="M7,24.6c0,0-0.3,0.5-0.6,1.2c-0.3,0.7-0.7,1.7-0.8,2.8c-0.1,0.5-0.1,1.1-0.1,1.6c0,0.2,0,0.5,0.1,0.7
					c0,0.2,0.1,0.4,0.1,0.6c0.1,0.4,0.2,0.7,0.3,0.9c0.1,0.2,0.1,0.3,0.1,0.3s-0.1-0.1-0.2-0.3c-0.1-0.2-0.2-0.5-0.3-0.9
					c-0.1-0.2-0.1-0.4-0.1-0.6c-0.1-0.2-0.1-0.5-0.1-0.7c0-0.5,0-1,0-1.6c0.1-1.1,0.4-2.1,0.7-2.9c0.3-0.8,0.6-1.2,0.6-1.2L7,24.6z"
					/>
			</g>
			<g>
				<path fill="#ED926D" d="M7.9,26c0,0-0.2,0.3-0.5,0.8c-0.3,0.5-0.6,1.3-0.8,2.1c-0.2,0.8-0.3,1.6-0.3,2.2c0,0.3,0,0.6,0.1,0.7
					c0,0.2,0,0.3,0,0.3s0-0.1-0.1-0.3c0-0.2-0.1-0.4-0.1-0.7c-0.1-0.6,0-1.4,0.1-2.3c0.2-0.8,0.4-1.6,0.7-2.2
					c0.3-0.6,0.5-0.9,0.5-0.9L7.9,26z"/>
			</g>
			<g>
				<path fill="#ED926D" d="M7.2,27c0,0-0.2,0.9-0.2,1.9c0,0.5,0,0.9,0.1,1.3c0.1,0.3,0.2,0.6,0.2,0.6s-0.1-0.2-0.2-0.6
					c-0.1-0.3-0.2-0.8-0.2-1.3C6.8,27.9,7,27,7,27L7.2,27z"/>
			</g>
			<path fill="none" stroke="#ED926D" stroke-width="0.2228" stroke-miterlimit="24" d="M6.5,28.5c0,0,0,1.9,0.6,2.9"/>
			<g>
				<path fill="#ED926D" d="M8.2,28.5c0,0-0.1,0.2-0.3,0.6c-0.2,0.4-0.3,0.8-0.4,1.3c-0.1,0.5-0.1,1,0,1.4c0.1,0.4,0.2,0.6,0.2,0.6
					c0,0-0.1-0.2-0.2-0.6c-0.1-0.4-0.1-0.9-0.1-1.4c0.1-1.1,0.7-2,0.7-2L8.2,28.5z"/>
			</g>
			<path fill="none" stroke="#ED926D" stroke-width="0.2228" stroke-miterlimit="24" d="M7.3,31.4c0,0-1.4,0.5-2.1,2.1"/>
			<g>
				<path fill="#ED926D" d="M6.7,33.3c0,0-0.5,0-1.2,0.2c-0.4,0.1-0.8,0.3-1.1,0.5c-0.2,0.1-0.4,0.2-0.6,0.4
					c-0.2,0.2-0.3,0.3-0.5,0.5c-0.1,0.2-0.2,0.4-0.3,0.6c-0.1,0.2-0.1,0.5-0.2,0.7c-0.1,0.4-0.1,0.9,0,1.2c0,0.4,0.1,0.7,0.2,0.8
					c0.1,0.2,0.2,0.3,0.2,0.3S3.2,38.5,3,38.4c-0.1-0.2-0.3-0.5-0.3-0.8c-0.1-0.4-0.1-0.8,0-1.3c0-0.2,0.1-0.5,0.1-0.7
					C2.9,35.3,3,35,3.1,34.8c0.2-0.2,0.3-0.4,0.5-0.6c0.2-0.2,0.4-0.3,0.6-0.4c0.4-0.2,0.8-0.3,1.2-0.4C6.2,33.3,6.7,33.3,6.7,33.3z
					"/>
			</g>
			<g>
				<path fill="#ED926D" d="M3.9,34.3c0,0-0.2,0.1-0.5,0.3c-0.3,0.2-0.7,0.6-0.9,1c-0.2,0.4-0.3,1-0.3,1.3c0,0.2,0,0.3,0.1,0.5
					c0,0.1,0,0.2,0,0.2s0-0.1,0-0.2c0-0.1-0.1-0.3-0.1-0.5c0-0.4,0-0.9,0.2-1.4c0.2-0.5,0.6-0.9,0.9-1.1c0.3-0.2,0.6-0.4,0.6-0.4
					L3.9,34.3z"/>
			</g>
			<g>
				<path fill="#ED926D" d="M3.3,38c-0.9-0.1-1.8-0.4-2.5-1c-0.7-0.6-1.3-1.3-1.7-2.2l0.2,0c0,0.5,0.2,1.1,0.4,1.5l0.1,0.2l-0.2,0
					c-0.2,0-0.4-0.1-0.5-0.2l0.2-0.1c0.2,0.3,0.4,0.6,0.7,0.9c0.3,0.3,0.6,0.5,0.9,0.7c0.6,0.4,1.4,0.7,2.1,0.9
					c-0.8-0.1-1.5-0.4-2.2-0.8C0,37.5-0.6,36.9-1,36.2l-0.2-0.4l0.4,0.3c0.1,0.1,0.3,0.2,0.4,0.2l-0.1,0.2c-0.3-0.5-0.4-1.1-0.4-1.6
					l0-0.5l0.2,0.5c0.2,0.4,0.4,0.8,0.7,1.2c0.3,0.4,0.6,0.7,0.9,1C1.6,37.5,2.4,37.9,3.3,38z"/>
			</g>
			<path fill="none" stroke="#ED926D" stroke-width="0.2228" stroke-miterlimit="24" d="M1.9,38.4c0,0-1.6,1.2-1.9,2.2
				s0.8,2.7,2.1,3.2"/>
			<g>
				<path fill="#ED926D" d="M1.4,39.9c0,0-0.1,0.9,0.1,1.8c0.1,0.4,0.2,0.9,0.4,1.1C1.9,42.9,2,43.1,2,43.1c0.1,0.1,0.1,0.1,0.1,0.1
					c0,0-0.2-0.1-0.4-0.4c-0.2-0.3-0.4-0.7-0.5-1.2c-0.1-0.5-0.1-0.9,0-1.3C1.3,40.1,1.4,39.9,1.4,39.9z"/>
			</g>
			<g>
				<path fill="#ED926D" d="M1.2,41c0.4-0.6,0.9-1,1.6-1.3l0.3-0.2l-0.2,0.3c-0.3,0.5-0.6,1.1-0.7,1.6c-0.1,0.3-0.1,0.6,0,0.9
					c0,0.3,0.1,0.6,0.3,0.8l0.1,0.3l-0.2-0.2c-0.4-0.3-0.8-0.8-1-1.3c0.2,0.5,0.6,0.9,1.1,1.1l-0.1,0.1c-0.2-0.3-0.3-0.6-0.3-0.9
					C2,42,2,41.7,2,41.4c0.1-0.6,0.4-1.2,0.8-1.7l0.1,0.1C2.3,40.1,1.7,40.5,1.2,41z"/>
			</g>
			<g>
				<path fill="#ED926D" d="M7.3,31.8c0,0-0.6,0.6-1,1.3c-0.2,0.3-0.4,0.7-0.5,1c-0.1,0.3-0.2,0.5-0.2,0.5s0-0.2,0.1-0.5
					c0.1-0.3,0.3-0.7,0.5-1c0.2-0.3,0.5-0.7,0.7-0.9C7.1,31.9,7.3,31.8,7.3,31.8z"/>
			</g>
			<g>
				<path fill="#ED926D" d="M5.8,35.9c0,0,0.4,0,0.9,0c0.3,0,0.6,0,1,0.1c0.4,0,0.7,0.2,1.1,0.2c0.7,0.1,1.5,0.1,1.9-0.1
					c0.2-0.1,0.4-0.2,0.5-0.3c0.1-0.1,0.2-0.2,0.2-0.2l0.3,0.3c0,0-0.1,0.1-0.2,0.2c-0.1,0.1-0.4,0.2-0.7,0.3
					c-0.6,0.2-1.4,0.2-2.1,0c-0.4-0.1-0.7-0.3-1-0.3C7.3,36,7,36,6.7,36C6.2,35.9,5.8,35.9,5.8,35.9z"/>
			</g>
			<g>
				<path fill="#ED926D" d="M8.7,36.4c0,0-0.7,1.3-2,2c-0.3,0.2-0.6,0.3-1,0.4c-0.3,0.1-0.6,0.1-0.9,0.1C4.3,38.9,4,39.1,4,39.1
					s0.3-0.2,0.8-0.3c0.3,0,0.6,0,0.9-0.2c0.3-0.1,0.6-0.2,0.9-0.5c0.6-0.4,1-0.9,1.3-1.3c0.3-0.4,0.4-0.7,0.4-0.7L8.7,36.4z"/>
			</g>
			<g>
				<path fill="#ED926D" d="M4.4,38.9c0,0,0.2,0.4,0.5,0.9c0.3,0.6,0.7,1.3,0.9,2.2c0.1,0.2,0.1,0.4,0.2,0.6
					c0.1,0.2,0.1,0.4,0.2,0.5c0.2,0.3,0.4,0.6,0.6,0.8c0.4,0.4,0.8,0.7,0.8,0.7L7.4,45c0,0-0.3-0.3-0.8-0.8C6.4,44,6.2,43.7,6,43.3
					c-0.1-0.2-0.2-0.4-0.2-0.6c-0.1-0.2-0.1-0.4-0.1-0.6c-0.2-0.8-0.5-1.6-0.8-2.2C4.6,39.3,4.4,38.9,4.4,38.9z"/>
			</g>
			<g>
				<path fill="#ED926D" d="M3.3,41.9c0,0-0.1,0.4-0.1,0.8c0.1,0.4,0.4,0.7,0.4,0.7l-0.1,0.1c0,0-0.3-0.3-0.4-0.8
					C3.1,42.3,3.3,41.9,3.3,41.9z"/>
			</g>
			<g>
				<path fill="#ED926D" d="M5.6,41.4c0,0,0.1,0.1,0.3,0.3c0.2,0.2,0.5,0.4,0.9,0.6c0.7,0.4,1.4,0.6,1.4,0.6s-0.7-0.2-1.4-0.5
					c-0.4-0.2-0.7-0.4-0.9-0.5c-0.2-0.2-0.4-0.3-0.4-0.3L5.6,41.4z"/>
			</g>
			<g>
				<path fill="#ED926D" d="M8.4,36.7c0,0,0.1,0.3,0.2,0.7c0.1,0.4,0.1,1-0.1,1.6c-0.1,0.3-0.2,0.5-0.4,0.8C8.1,39.9,8,39.9,7.9,40
					c-0.1,0.1-0.2,0.2-0.3,0.2c-0.2,0.1-0.3,0.2-0.4,0.3C7.1,40.6,7,40.7,7,40.7s0.1,0,0.2-0.1c0.1-0.1,0.3-0.2,0.4-0.3
					c0.1-0.1,0.2-0.1,0.2-0.2c0.1-0.1,0.2-0.2,0.2-0.3c0.1-0.2,0.3-0.5,0.3-0.8c0.2-0.5,0.1-1.1,0-1.5c-0.1-0.4-0.2-0.7-0.2-0.7
					L8.4,36.7z"/>
			</g>
			<g>
				<path fill="#ED926D" d="M9,36.3c0,0,0.1,0.4,0.2,0.9c0,0.5,0,1.3-0.3,2c-0.2,0.7-0.7,1.3-1.1,1.6c-0.2,0.2-0.4,0.3-0.5,0.4
					c-0.1,0.1-0.2,0.2-0.2,0.2s0.1-0.1,0.2-0.2c0.1-0.1,0.3-0.2,0.5-0.4c0.4-0.4,0.8-1,1-1.6C9,38.5,9.1,37.8,9,37.2
					c-0.1-0.5-0.2-0.8-0.2-0.8L9,36.3z"/>
			</g>
			<path fill="none" stroke="#ED926D" stroke-width="0.4457" stroke-miterlimit="24" d="M13.9,6.7"/>
			<g>
				<path fill="#ED926D" d="M13.9,6.7c0,0-0.7,0.2-1.7,0.7c-0.5,0.2-1,0.6-1.6,1c-0.6,0.4-1.1,0.9-1.6,1.4c-0.5,0.5-0.9,1.1-1.3,1.7
					c-0.2,0.3-0.3,0.6-0.5,0.9c-0.2,0.3-0.3,0.5-0.4,0.8c-0.2,0.5-0.4,0.9-0.5,1.2c-0.1,0.3-0.2,0.5-0.2,0.5s0-0.2,0.1-0.5
					c0.1-0.3,0.1-0.8,0.3-1.3c0.1-0.3,0.2-0.6,0.3-0.8c0.1-0.3,0.3-0.6,0.4-0.9c0.4-0.6,0.8-1.2,1.3-1.8c0.5-0.5,1.1-1,1.7-1.4
					c0.3-0.2,0.6-0.4,0.9-0.5c0.3-0.1,0.6-0.3,0.8-0.4C13.1,6.8,13.9,6.7,13.9,6.7z"/>
			</g>
			<path fill="none" stroke="#ED926D" stroke-width="0.4457" stroke-miterlimit="24" d="M11.8,7.5"/>
			<path fill="none" stroke="#ED926D" stroke-width="0.4457" stroke-miterlimit="24" d="M10.1,8.6c3-2.9,7.4-4.9,11.9-4.9
				c9.3,0,16.8,7.5,16.8,16.8c0,0.7,0,1.3-0.1,1.9"/>
			<g>
				<path fill="#ED926D" d="M9.9,10.7c0,0-0.3,0.5-0.9,1.3c-0.6,0.8-1.4,1.7-2.2,2.7c-0.4,0.5-0.9,0.9-1.3,1.3
					c-0.4,0.4-0.9,0.7-1.3,1c-0.2,0.1-0.4,0.3-0.6,0.3c-0.2,0.1-0.3,0.2-0.5,0.2c-0.3,0.1-0.4,0.1-0.4,0.1s0.1-0.1,0.4-0.2
					c0.1,0,0.3-0.1,0.4-0.2c0.2-0.1,0.3-0.2,0.5-0.4c0.4-0.3,0.8-0.6,1.2-1c0.4-0.4,0.9-0.9,1.3-1.3c0.9-0.9,1.7-1.9,2.3-2.6
					C9.5,11.1,9.9,10.7,9.9,10.7z"/>
			</g>
			<g>
				<path fill="#ED926D" d="M6.3,20c0.2-0.7,0.5-1.5,1.2-1.9L7.6,18l-0.1,0.2c-0.2,0.4-0.4,0.8-0.5,1.1c-0.1,0.4-0.3,0.8-0.3,1.2
					l0,0l0.3,1l-0.2,0.1l-0.3-1l0,0l0,0c0-0.5,0.2-0.9,0.3-1.2c0.2-0.4,0.3-0.8,0.6-1.1l0.1,0.1C6.9,18.6,6.5,19.3,6.3,20z"/>
			</g>
			<g>
				<path fill="#ED926D" d="M4.7,20c0.1-0.6,0.3-1.1,0.5-1.7c0.2-0.5,0.5-1.1,1-1.5l0.6-0.6l-0.4,0.7c-0.2,0.4-0.4,0.9-0.5,1.4
					c-0.1,0.5-0.2,1,0,1.5c-0.2-0.5-0.2-1-0.1-1.5c0.1-0.5,0.3-1,0.5-1.5l0.2,0.1c-0.4,0.4-0.7,0.9-1,1.4C5.1,18.9,4.9,19.4,4.7,20z
					"/>
			</g>
			<g>
				<path fill="#ED926D" d="M6,15.4c0,0-0.6,1-0.9,2.2c-0.2,0.6-0.3,1.2-0.3,1.6c-0.1,0.5,0,0.8,0,0.8s0-0.3,0-0.8
					c0-0.5,0.1-1.1,0.3-1.6c0.3-1.2,0.8-2.3,0.8-2.3L6,15.4z"/>
			</g>
			<g>
				<path fill="#ED926D" d="M10.7,11.2c0,0-0.4,0.3-0.8,0.9c-0.5,0.6-1,1.5-1.4,2.4c-0.4,0.9-0.7,1.9-0.9,2.6
					c-0.2,0.7-0.3,1.2-0.3,1.2s0-0.1,0-0.3c0-0.2,0.1-0.5,0.2-0.9c0.2-0.7,0.4-1.7,0.9-2.7c0.4-0.9,1-1.8,1.5-2.4
					C10.3,11.5,10.7,11.2,10.7,11.2z"/>
			</g>
			<path fill="none" stroke="#ED926D" stroke-width="0.1114" stroke-miterlimit="24" d="M4.1,16.9"/>
			<g>
				<path fill="#ED926D" d="M5.1,17.6c0,0-0.7,0.3-1.5,0.5c-0.7,0.2-1.5,0.3-1.5,0.3s0.8-0.1,1.5-0.4C4.3,17.7,5,17.3,5,17.3
					L5.1,17.6z"/>
			</g>
			<g>
				<path fill="#ED926D" d="M11.6,31c0,0,0.1,0.2,0.4,0.3c0.3,0.1,0.7,0.2,1.1,0.2c0.4,0,0.8,0,1.2,0c0.3,0,0.5,0.1,0.5,0.1
					s-0.2,0-0.5,0c-0.3,0-0.7,0.1-1.2,0c-0.4,0-0.9-0.1-1.2-0.2C11.6,31.3,11.5,31,11.6,31z"/>
			</g>
			<g>
				<path fill="#ED926D" d="M15.8,31.6c0,0,0.1,0,0.2,0c0.1,0,0.4,0,0.6,0c0.1,0,0.3,0.1,0.4,0.2c0.1,0.1,0.3,0.3,0.2,0.5
					c-0.1,0.4-0.4,0.6-0.7,0.8c-0.6,0.3-1.3,0.5-1.8,0.5c-0.5,0-0.8,0-0.8,0s0.3,0,0.8-0.1c0.5-0.1,1.1-0.2,1.7-0.6
					c0.3-0.2,0.5-0.4,0.6-0.6c0.1-0.2-0.2-0.4-0.5-0.5C16.2,31.6,15.8,31.6,15.8,31.6z"/>
			</g>
			<g>
				<path fill="#ED926D" d="M13.5,33.3c-0.3-0.1-0.7-0.3-0.9-0.5c-0.2-0.3-0.4-0.6-0.5-0.9l0,0.1c-0.3-0.2-0.4-0.4-0.6-0.7
					c0.2,0.2,0.5,0.4,0.7,0.5l0,0l0,0C12.6,32.4,13,32.9,13.5,33.3z"/>
			</g>
			<g>
				<path fill="#ED926D" d="M16.7,31.7c-0.2,0.3-0.5,0.6-0.9,0.7l0,0l0,0l-0.3-0.2l0.1,0l-0.4,0.3l0,0l0,0c-0.5,0.1-1,0-1.6-0.1
					c-0.3-0.1-0.5-0.2-0.7-0.3c-0.2-0.1-0.4-0.4-0.5-0.6c0.3,0.4,0.8,0.6,1.3,0.7c0.5,0.1,1,0.1,1.5,0.1l0,0l0.4-0.2l0.1,0l0,0
					l0.3,0.2l-0.1,0C16.2,32.2,16.5,32,16.7,31.7z"/>
			</g>
			<g>
				<path fill="#ED926D" d="M16.9,32.6c0,0-0.1-0.2-0.3-0.3c-0.2-0.1-0.4-0.1-0.4-0.1c0,0,0.2-0.1,0.5,0c0.1,0.1,0.2,0.2,0.2,0.3
					C16.9,32.6,16.9,32.6,16.9,32.6z"/>
			</g>
			<g>
				<path fill="#ED926D" d="M13.3,32.3c0,0-0.2,0-0.3,0.2c-0.1,0.2-0.1,0.4-0.1,0.4c0,0-0.1-0.2,0-0.4c0.1-0.2,0.4-0.2,0.4-0.2
					L13.3,32.3z"/>
			</g>
			<g>
				<path fill="#ED926D" d="M11.8,21.6c0.3,0.7,0.4,1.5,0.5,2.3c0,0.4,0,0.8-0.1,1.2c-0.1,0.4-0.2,0.8-0.5,1.1l0,0l0,0
					c-0.3,0.4-0.6,0.9-0.7,1.5c0,0.3,0,0.5,0.1,0.8c0.1,0.3,0.2,0.5,0.4,0.7c-0.2-0.2-0.4-0.4-0.5-0.7c-0.1-0.3-0.2-0.6-0.1-0.9
					c0.1-0.6,0.3-1.1,0.7-1.6l0,0c0.4-0.7,0.6-1.4,0.6-2.2C12.1,23.1,12,22.3,11.8,21.6z"/>
			</g>
			<g>
				<path fill="#ED926D" d="M12.4,28.6c0,0,0.1-0.1,0.3-0.1c0.2,0,0.3,0.1,0.3,0.1c0,0-0.1,0-0.3,0C12.6,28.6,12.4,28.6,12.4,28.6z"
					/>
			</g>
			<g>
				<path fill="#ED926D" d="M11.2,19.2c0,0-0.2-0.1-0.5-0.3c-0.3-0.2-0.7-0.4-1-0.5c-0.4-0.1-0.8-0.1-1.1,0c-0.1,0-0.3,0.1-0.4,0.1
					c-0.1,0-0.1,0.1-0.1,0.1c0,0,0.1-0.2,0.4-0.4c0.2-0.1,0.3-0.2,0.6-0.2c0.2,0,0.5,0,0.7,0.1c0.4,0.1,0.8,0.4,1.1,0.6
					C11.1,19,11.2,19.2,11.2,19.2z"/>
			</g>
			<g>
				<path fill="#ED926D" d="M8.8,18.2c0,0,0.1-0.1,0.3-0.2c0.2-0.1,0.4-0.2,0.7-0.2c0.5,0,1,0.2,1,0.2s-0.5-0.2-1-0.1
					c-0.2,0-0.5,0.1-0.6,0.2C9.1,18.3,9,18.3,9,18.3L8.8,18.2z"/>
			</g>
			<g>
				<path fill="#ED926D" d="M24.7,22.4c0,0-0.4-0.4-1.1-1c-0.3-0.3-0.7-0.6-1.2-0.9c-0.4-0.3-0.9-0.6-1.5-0.9
					c-0.3-0.1-0.5-0.2-0.8-0.3c-0.3-0.1-0.5-0.2-0.8-0.2c-0.3,0-0.5-0.1-0.8-0.1c-0.2,0-0.5,0-0.7,0c-0.2,0-0.4,0.1-0.6,0.1
					c-0.2,0.1-0.3,0.1-0.4,0.2c-0.2,0.1-0.4,0.1-0.4,0.1s0.1-0.1,0.3-0.2c0.1-0.1,0.2-0.2,0.4-0.2c0.2-0.1,0.4-0.1,0.6-0.2
					c0.2-0.1,0.5-0.1,0.7-0.1c0.3-0.1,0.5,0,0.8,0c0.3,0,0.6,0.1,0.9,0.2c0.3,0.1,0.6,0.2,0.9,0.3c0.5,0.3,1.1,0.6,1.5,1
					c0.4,0.3,0.8,0.7,1.1,1.1C24.4,21.9,24.7,22.4,24.7,22.4z"/>
			</g>
			<g>
				<path fill="#ED926D" d="M21.9,13.4c0,0,0,0.3-0.1,0.8c-0.1,0.5-0.2,1.2-0.4,1.8c-0.4,1.3-1.3,2.3-1.3,2.3s0.8-1.1,1.1-2.4
					c0.2-0.6,0.3-1.3,0.3-1.8c0-0.5,0-0.8,0-0.8L21.9,13.4z"/>
			</g>
			<g>
				<path fill="#ED926D" d="M17.1,21.6c0,0,0.2-0.1,0.4-0.3c0.3-0.1,0.7-0.2,1.1-0.2c0.4,0,0.8,0.2,1.1,0.3c0.1,0.1,0.2,0.2,0.3,0.2
					c0.1,0.1,0.1,0.1,0.1,0.1s-0.2-0.1-0.4-0.2c-0.3-0.1-0.6-0.3-1-0.3c-0.4,0-0.8,0-1.1,0.2C17.3,21.5,17.1,21.6,17.1,21.6z"/>
			</g>
			<g>
				<path fill="#ED926D" d="M15.5,6.7c0.5,0.3,1,0.8,1.2,1.4c0.1,0.1,0.1,0.3,0.1,0.5c0,0.2,0,0.3,0,0.5c0,0.2,0,0.3,0,0.5
					c0,0.2-0.1,0.3-0.1,0.5c-0.1,0.3-0.2,0.6-0.4,0.9c-0.1,0.1-0.2,0.3-0.2,0.4c-0.1,0.1-0.2,0.3-0.3,0.4c-0.2,0.2-0.4,0.5-0.6,0.7
					l-0.7,0.7l-0.1-0.2c0.6-0.3,1.1-0.7,1.6-1.2c0.5-0.4,1-0.9,1.2-1.6c-0.2,0.6-0.7,1.2-1.1,1.7c-0.5,0.5-1,0.9-1.6,1.2l-0.6,0.4
					l0.5-0.6l0.6-0.7c0.2-0.2,0.4-0.5,0.6-0.7c0.1-0.1,0.2-0.3,0.3-0.4c0.1-0.1,0.2-0.3,0.2-0.4c0.1-0.3,0.3-0.5,0.4-0.8
					c0-0.1,0.1-0.3,0.1-0.4c0-0.1,0.1-0.3,0.1-0.4c0-0.1,0-0.3,0-0.5c0-0.1,0-0.3-0.1-0.4C16.4,7.6,16,7.1,15.5,6.7z"/>
			</g>
			<g>
				<path fill="#ED926D" d="M32.8,20.1c0,0,0.3,0.8,0.6,1.9c0.3,1.2,0.7,2.8,0.9,4.4c0.1,0.8,0.1,1.6,0,2.4c0,0.4-0.1,0.7-0.2,1.1
					c-0.1,0.3-0.2,0.7-0.3,0.9c-0.2,0.6-0.4,1-0.6,1.3c-0.1,0.1-0.2,0.2-0.3,0.3c-0.1,0-0.1-0.1-0.1-0.1c0,0,0,0.1,0.1,0
					c0.1,0,0.2-0.1,0.3-0.3c0.2-0.3,0.4-0.8,0.6-1.3c0.1-0.3,0.2-0.6,0.3-0.9c0.1-0.3,0.2-0.7,0.2-1.1c0.1-0.8,0-1.6,0-2.4
					c-0.2-1.6-0.5-3.2-0.9-4.4C33,20.9,32.8,20.1,32.8,20.1z"/>
			</g>
			<g>
				<path fill="#ED926D" d="M29.6,17c0,0,0.8,3.1,2,6.2c0.6,1.5,1.2,3,1.8,4.1c0.5,1.1,1,1.8,1,1.8s-0.1-0.2-0.3-0.5
					c-0.2-0.3-0.4-0.7-0.7-1.3c-0.6-1.1-1.2-2.6-1.8-4.1c-0.6-1.5-1-3.1-1.4-4.3C29.7,17.8,29.6,17,29.6,17z"/>
			</g>
			<g>
				<path fill="#ED926D" d="M33.7,28.8c0,0-1.7,0.8-3.2,2c-0.7,0.6-1.4,1.2-1.8,1.8c-0.2,0.3-0.4,0.5-0.5,0.7
					c-0.1,0.2-0.2,0.3-0.2,0.3s0-0.1,0.1-0.3c0.1-0.2,0.2-0.5,0.4-0.8c0.2-0.3,0.4-0.7,0.7-1c0.3-0.3,0.7-0.7,1-1
					c0.4-0.3,0.8-0.6,1.2-0.8c0.4-0.2,0.8-0.4,1.1-0.5C33.3,29,33.7,28.8,33.7,28.8z"/>
			</g>
			<g>
				<path fill="#ED926D" d="M35.2,30.7c0,0-0.1,0.8-0.7,2c-0.3,0.6-0.7,1.2-1.2,1.8c-0.3,0.3-0.6,0.6-0.9,0.8
					c-0.3,0.2-0.7,0.5-1.1,0.6c-0.4,0.2-0.8,0.2-1.2,0.3c-0.4,0.1-0.8,0.2-1.2,0.2c-0.8,0.1-1.5,0.2-2.1,0.2
					c-0.6,0.1-1.1,0.2-1.5,0.3c-0.3,0.1-0.5,0.2-0.5,0.2s0.2-0.1,0.5-0.2c0.3-0.1,0.8-0.3,1.4-0.5c0.6-0.1,1.3-0.2,2.1-0.4
					c0.4-0.1,0.8-0.2,1.2-0.3c0.4-0.1,0.8-0.2,1.2-0.4c0.4-0.1,0.7-0.3,1.1-0.5c0.3-0.2,0.6-0.5,0.9-0.7c0.5-0.5,1-1.1,1.3-1.6
					C34.9,31.5,35.2,30.7,35.2,30.7z"/>
			</g>
			<g>
				<path fill="#ED926D" d="M28.6,36.5c0,0-0.1,0.3-0.3,0.7c-0.2,0.4-0.6,1.1-1.2,1.6c-0.3,0.3-0.7,0.6-1.2,0.7
					c-0.5,0.2-1,0.2-1.5,0.1c-1-0.1-2.1-0.2-3.2-0.2c-1.1,0-2.2,0-3.2,0c-1,0.1-2,0.2-2.8,0.4c-0.4,0.1-0.8,0.2-1.1,0.3
					c-0.3,0.1-0.6,0.2-0.8,0.3c-0.4,0.2-0.7,0.3-0.7,0.3s0.2-0.1,0.7-0.3c0.2-0.1,0.5-0.2,0.8-0.3c0.3-0.1,0.7-0.2,1.1-0.3
					c0.8-0.2,1.8-0.4,2.8-0.5c1-0.1,2.1-0.1,3.3-0.1c1.1,0,2.2,0.1,3.2,0.1c0.5,0,1,0,1.4-0.1c0.4-0.2,0.8-0.4,1-0.7
					c0.6-0.6,0.9-1.2,1.1-1.6c0.2-0.4,0.3-0.7,0.3-0.7L28.6,36.5z"/>
			</g>
			<g>
				<path fill="#ED926D" d="M23.9,35.4c0,0,0.5-0.1,0.9-0.1c0.5,0,0.9,0,0.9,0s-0.4,0.1-0.9,0.3c-0.4,0.1-0.8,0.3-0.8,0.3L23.9,35.4
					z"/>
			</g>
			<path fill="none" stroke="#ED926D" stroke-width="0.4457" stroke-miterlimit="10" d="M19.8,39.4c0,0,0.8-2.7,4.2-3.8"/>
			<path fill="none" stroke="#ED926D" stroke-width="0.2228" stroke-miterlimit="10" d="M26.5,32.7c0,0-2.3,1.3-3,3.1"/>
			<g>
				<path fill="#ED926D" d="M31.4,32c0,0,0.5-0.2,1.3-0.5c0.4-0.1,0.8-0.4,1.3-0.6c0.4-0.2,0.9-0.5,1.4-0.8c0.5-0.3,0.9-0.6,1.2-1
					c0.4-0.4,0.7-0.7,1-1c0.3-0.3,0.5-0.6,0.6-0.8c0.1-0.2,0.2-0.3,0.2-0.3s-0.1,0.1-0.2,0.4c-0.1,0.2-0.2,0.5-0.5,0.9
					c-0.1,0.2-0.2,0.4-0.4,0.6c-0.1,0.2-0.3,0.4-0.5,0.6c-0.4,0.4-0.8,0.8-1.3,1.1c-0.9,0.6-2,1.1-2.8,1.3C31.9,32,31.4,32,31.4,32z
					"/>
			</g>
			<g>
				<path fill="#ED926D" d="M37.9,27.7c0,0,0,0.3-0.1,0.6c-0.1,0.4-0.3,0.8-0.7,1.3c-0.3,0.4-0.8,0.7-1.1,0.9
					c-0.3,0.2-0.6,0.2-0.6,0.2c0,0,0.1,0,0.2-0.1c0.1,0,0.2-0.1,0.4-0.2c0.3-0.2,0.7-0.5,1-0.9c0.3-0.4,0.6-0.8,0.7-1.2
					C37.9,28,37.9,27.7,37.9,27.7z"/>
			</g>
			<g>
				<path fill="#ED926D" d="M11.3,36.3c-0.8,1-1.6,2-2.1,3.2c-0.3,0.6-0.5,1.2-0.6,1.8c0,0.2,0,0.3-0.1,0.5c0,0.2,0,0.3,0,0.5
					c0,0.2,0,0.3,0,0.5l0.1,0.5l0,0c0.3,0.4,0.6,0.9,0.9,1.4c0.2,0.5,0.4,1,0.4,1.6c0-0.6-0.2-1.1-0.5-1.5c-0.3-0.5-0.6-0.9-0.9-1.3
					l0,0l0,0l-0.1-0.5c0-0.2,0-0.3,0-0.5c0-0.2,0-0.3,0-0.5c0-0.2,0-0.3,0.1-0.5c0.1-0.7,0.3-1.3,0.6-1.9c0.5-1.2,1.2-2.3,2-3.4
					L11.3,36.3z"/>
			</g>
			<g>
				<path fill="#ED926D" d="M34.6,32.1c0.2,0,0.4,0.2,0.5,0.3c0.1,0.1,0.2,0.3,0.2,0.4c0.1,0.3,0.1,0.6,0.1,0.8
					c0,0.6-0.1,1.1-0.2,1.6l0,0l0,0c-0.1,0.4-0.2,0.8-0.3,1.3c-0.1,0.4-0.2,0.9-0.2,1.3c0-0.4,0-0.9,0.1-1.3
					c0.1-0.4,0.1-0.9,0.2-1.3l0,0c0.1-0.5,0.1-1.1,0.1-1.6c0-0.3-0.1-0.5-0.1-0.7c0-0.1-0.1-0.2-0.2-0.3c-0.1-0.1-0.2-0.1-0.2-0.1
					L34.6,32.1z"/>
			</g>
			<g>
				<path fill="#ED926D" d="M35.2,34.7c0,0,0.3,0.5,0.8,1.3c0.2,0.4,0.5,0.8,0.8,1.3c0.2,0.2,0.3,0.5,0.5,0.7
					c0.2,0.2,0.4,0.4,0.5,0.7c0.2,0.6,0.1,1.2-0.1,1.8c-0.2,0.5-0.5,1-0.7,1.3c-0.3,0.3-0.6,0.6-0.8,0.7c-0.2,0.1-0.3,0.2-0.3,0.2
					s0.1-0.1,0.3-0.2c0.2-0.2,0.5-0.4,0.7-0.8c0.3-0.4,0.5-0.8,0.7-1.3c0.2-0.5,0.2-1.1,0-1.6c-0.1-0.2-0.3-0.5-0.5-0.7
					c-0.2-0.2-0.3-0.5-0.5-0.7c-0.3-0.5-0.6-0.9-0.9-1.2c-0.5-0.7-0.8-1.2-0.8-1.2L35.2,34.7z"/>
			</g>
			<g>
				<path fill="#ED926D" d="M36.9,41.7c0,0,0.2,0.2,0.4,0.5c0.2,0.3,0.5,0.8,0.8,1.2c0.6,0.9,0.9,1.9,0.9,1.9s-0.5-1-1.1-1.8
					c-0.3-0.4-0.7-0.8-0.9-1.1c-0.3-0.3-0.5-0.5-0.5-0.5L36.9,41.7z"/>
			</g>
			<g>
				<path fill="#ED926D" d="M10.5,21.9c0,0-0.3-0.1-0.7-0.2c-0.4-0.1-1-0.2-1.6-0.1c-0.3,0.1-0.5,0.2-0.8,0.3
					c-0.1,0.1-0.2,0.2-0.3,0.3C7,22.3,7,22.4,6.9,22.5c-0.1,0.2-0.2,0.3-0.3,0.4c-0.1,0.1-0.1,0.2-0.1,0.2s0-0.1,0.1-0.2
					c0.1-0.1,0.1-0.3,0.2-0.5c0.1-0.1,0.1-0.2,0.2-0.3c0.1-0.1,0.2-0.2,0.3-0.3c0.2-0.2,0.5-0.3,0.8-0.4c0.6-0.1,1.3,0,1.7,0.2
					C10.3,21.8,10.5,21.9,10.5,21.9z"/>
			</g>
			<g>
				<path fill="#ED926D" d="M7,22.3c0,0-0.2,0.5-0.1,1.2c0,0.4,0.1,0.8,0.2,1.2c0.2,0.4,0.4,0.8,0.8,1.2c0.7,0.7,1.8,0.9,2.5,0.8
					c0.4-0.1,0.7-0.2,0.8-0.3c0.2-0.1,0.3-0.2,0.3-0.2c0,0-0.1,0.1-0.3,0.2c-0.2,0.1-0.5,0.3-0.8,0.4c-0.4,0.1-0.8,0.1-1.3,0
					c-0.5-0.1-0.9-0.4-1.3-0.7c-0.4-0.3-0.7-0.8-0.8-1.3c-0.2-0.5-0.2-0.9-0.2-1.3C6.7,22.8,7,22.3,7,22.3z"/>
			</g>
			<path fill="#ED926D" d="M6.8,23.8c0,0-0.1-0.4-0.4-0.5c0,0,0.4-0.8,0.5-0.8C6.9,22.5,6.6,23.6,6.8,23.8z"/>
			<path fill="none" stroke="#ED926D" stroke-width="0.4457" stroke-miterlimit="10" d="M12.1,24.3c0,0,1.5-0.2,2.6,0.8"/>
			<path fill="#ED926D" d="M24.3,24.6c-0.5-0.4-0.2-0.1-0.8-0.3c0,0-1.1-1.9-4.7-2.1c-3.6-0.2-4.2,1.5-4.3,2.3c0,0-0.2,2.9,3.6,3.8
				c0,0,2.9,0.6,4.9-1.6c0,0,0.6-1,1.6-0.9s4.4,0.4,4.4,0.4l0.3-0.4C29.4,25.8,24.7,25,24.3,24.6z M20.6,27.9
				c-3.3,1.1-5.5-1-5.7-2.8c0,0-0.7-3.1,4.3-2.8c0,0,2.9,0.1,3.7,2.2C22.9,24.6,23.5,27,20.6,27.9z"/>
			<path fill="#ED926D" d="M15.1,24.9c0,0,1,0.9,1,1.3c0,0.4-0.1,0.8-0.1,0.8S14.9,25.9,15.1,24.9z"/>
			<g>
				<path fill="#ED926D" d="M10.2,22.2c0,0,0.2,0,0.4,0.2c0.2,0.1,0.5,0.3,0.8,0.5c0.3,0.2,0.5,0.6,0.6,0.8c0.1,0.3,0.1,0.4,0.1,0.4
					c0,0,0-0.2-0.1-0.4c-0.1-0.2-0.3-0.5-0.6-0.7c-0.2-0.2-0.5-0.4-0.8-0.6C10.4,22.3,10.2,22.2,10.2,22.2z"/>
			</g>
			<g>
				<path fill="#ED926D" d="M9.1,22.4c0,0,0.2,0,0.5,0c0.3,0,0.7,0.2,1,0.4c0.3,0.2,0.6,0.5,0.8,0.7c0.2,0.2,0.3,0.4,0.3,0.4
					s-0.1-0.1-0.3-0.3c-0.2-0.2-0.5-0.5-0.8-0.7c-0.3-0.2-0.7-0.4-1-0.4C9.3,22.4,9.1,22.4,9.1,22.4z"/>
			</g>
			<path fill="#ED926D" d="M10.2,22.6c-0.8,0.3-1.4-0.1-1.4-0.1c0.2,0.3,0.6,0.4,0.6,0.4c-0.3,0-0.6,0.3-0.6,0.3
				c0.3-0.2,1-0.2,1-0.2c-0.3,0-0.6,0.4-0.6,0.4c1.4-0.9,2.4,0.7,2.4,0.7s-0.2-0.4,0.1-0.4C11.6,23.7,10.5,22.5,10.2,22.6z"/>
			<path fill="#ED926D" d="M20.3,23.2c1.5,0.2,2.4,1.5,2.4,1.5s-0.4,0.9-3.5,0.6c0,0,0.4,0,0.8-0.3c0,0-0.5,0.1-0.6,0
				c0,0,0-0.3-0.1-0.3c0,0,0.3,0,0.4-0.1c0,0,0-0.2-0.4-0.3c0,0,0.9,0.2,1-0.2c0,0,0-0.6-0.9-0.2c0,0,0.1-0.1,0.1-0.2
				c0,0-0.4,0.1-0.9,0.4s-0.9,0.2-0.9,0.2s0.5-0.1,0.6-0.5l-0.1-0.2c0,0,0.7-0.3,1.6-0.3"/>
			<g>
				<path fill="#ED926D" d="M20.2,23.6c0,0-0.5-0.2-1-0.4c-0.5-0.2-1-0.6-1-0.6s0.5,0.2,1,0.4c0.5,0.1,1.1,0.2,1.1,0.2L20.2,23.6z"
					/>
			</g>
			<g>
				<path fill="#ED926D" d="M20,23.3c0,0-0.8-0.3-1.6-0.3c-0.4,0-0.8,0.1-1.1,0.2c-0.3,0.1-0.4,0.2-0.4,0.2s0.2-0.1,0.4-0.3
					c0.3-0.1,0.7-0.2,1.1-0.2c0.8-0.1,1.6,0.2,1.6,0.2L20,23.3z"/>
			</g>
			<g>
				<path fill="#ED926D" d="M19.8,23.6c0,0-0.1-0.1-0.4-0.1c-0.2-0.1-0.5-0.1-0.9-0.1c-0.7,0-1.2,0.5-1.2,0.5s0.1-0.1,0.3-0.3
					c0.2-0.1,0.5-0.3,0.9-0.4c0.3-0.1,0.7-0.1,1-0.1c0.3,0,0.5,0.1,0.5,0.1L19.8,23.6z"/>
			</g>
			<g>
				<path fill="#ED926D" d="M18.7,23.6c0,0-0.3,0.2-0.5,0.3c-0.3,0.1-0.6,0.2-0.6,0.2s0.2-0.2,0.4-0.4c0.2-0.2,0.4-0.4,0.4-0.4
					L18.7,23.6z"/>
			</g>
			<g>
				<path fill="#ED926D" d="M18.5,24.5c0,0-0.2,0.1-0.3,0.2c-0.1,0.1-0.2,0.2-0.2,0.2c0,0,0-0.2,0.2-0.3
					C18.3,24.5,18.5,24.5,18.5,24.5z"/>
			</g>
			<g>
				<path fill="#ED926D" d="M19.1,24.9c0,0-0.1,0-0.2,0c-0.1,0-0.2,0.1-0.2,0c0,0,0-0.1,0.1-0.2C19,24.8,19.1,24.9,19.1,24.9z"/>
			</g>
			<g>
				<path fill="#ED926D" d="M22.5,24.8c0,0-0.1,0.2-0.3,0.4c-0.2,0.2-0.4,0.3-0.4,0.3s0.2-0.2,0.4-0.4c0.1-0.2,0.2-0.4,0.2-0.4
					L22.5,24.8z"/>
			</g>
			<path fill="#ED926D" d="M22,25c0,0,0.5-0.2,1,0c0,0-0.2-0.3-0.5-0.5"/>
			<g>
				<path fill="#ED926D" d="M21.8,24.4c0,0,0.1,0,0.2,0.1c0.1,0.1,0.3,0.2,0.4,0.3c0.3,0.3,0.3,0.6,0.3,0.6s-0.2-0.3-0.5-0.4
					c-0.3-0.1-0.6-0.1-0.6-0.1L21.8,24.4z"/>
			</g>
			<g opacity="0.5">
				<path fill="#FFAB70" d="M19.4,25.8c0,0-0.2,0.1-0.4,0.1c-0.2,0.1-0.5,0.2-0.8,0.3c-0.6,0.2-1.1,0.7-1.1,0.7s0.1-0.1,0.3-0.3
					c0.2-0.2,0.5-0.3,0.8-0.5c0.3-0.1,0.6-0.2,0.8-0.3C19.3,25.8,19.4,25.8,19.4,25.8z"/>
			</g>
			<g opacity="0.5">
				<path fill="#FFAB70" d="M20.6,26c0,0-0.2,0.1-0.5,0.2c-0.3,0.1-0.6,0.3-1,0.5c-0.4,0.2-0.7,0.4-1,0.5c-0.3,0.2-0.4,0.3-0.4,0.3
					s0.1-0.1,0.4-0.3c0.2-0.2,0.6-0.4,0.9-0.6c0.4-0.2,0.7-0.3,1-0.4C20.4,26.1,20.6,26,20.6,26z"/>
			</g>
			<g opacity="0.5">
				<path fill="#FFAB70" d="M19.4,26c0,0-0.1,0-0.2,0.1c-0.1,0.1-0.3,0.1-0.5,0.2c-0.4,0.1-0.7,0.4-0.7,0.4s0.1-0.1,0.2-0.2
					c0.1-0.1,0.3-0.2,0.5-0.3c0.2-0.1,0.4-0.1,0.5-0.2C19.3,26,19.4,26,19.4,26z"/>
			</g>
			<g opacity="0.5">
				<path fill="#FFAB70" d="M21.5,26.1c0,0-0.8,0.2-1.5,0.6c-0.4,0.1-0.7,0.3-1,0.5c-0.3,0.1-0.4,0.2-0.4,0.2s0.2-0.1,0.4-0.3
					c0.3-0.2,0.6-0.4,1-0.5c0.4-0.2,0.8-0.3,1-0.4C21.3,26.2,21.5,26.1,21.5,26.1z"/>
			</g>
			<g opacity="0.5">
				<path fill="#FFAB70" d="M19.7,27.3c0,0,0.1-0.1,0.2-0.2c0.1-0.1,0.3-0.2,0.5-0.3c0.2-0.1,0.4-0.1,0.5-0.2c0.1,0,0.3,0,0.3,0
					s-0.1,0-0.2,0.1c-0.1,0.1-0.3,0.1-0.5,0.2c-0.2,0.1-0.4,0.2-0.5,0.2C19.8,27.2,19.7,27.3,19.7,27.3z"/>
			</g>
			<g opacity="0.5">
				<path fill="#FFAB70" d="M21.8,26.8c0,0-0.1,0.1-0.2,0.1c-0.1,0.1-0.3,0.2-0.5,0.3c-0.2,0.1-0.4,0.2-0.5,0.2
					c-0.1,0.1-0.3,0.1-0.3,0.1s0.1-0.1,0.2-0.1c0.1-0.1,0.3-0.2,0.5-0.3c0.2-0.1,0.4-0.2,0.5-0.2C21.7,26.8,21.8,26.8,21.8,26.8z"/>
			</g>
			<g opacity="0.5">
				<path fill="#FFAB70" d="M21.7,27.1c0,0-0.1,0-0.1,0.1c-0.1,0-0.2,0.1-0.3,0.2c-0.1,0.1-0.2,0.1-0.3,0.2
					c-0.1,0.1-0.2,0.1-0.2,0.1s0-0.1,0.1-0.1c0.1-0.1,0.2-0.2,0.3-0.2C21.4,27.2,21.7,27.1,21.7,27.1z"/>
			</g>
			<g opacity="0.5">
				<path fill="#FFAB70" d="M9.4,24.1c0,0-0.1,0-0.1,0.1c-0.1,0-0.2,0.1-0.3,0.2c-0.1,0.1-0.2,0.1-0.3,0.2c-0.1,0-0.1,0.1-0.1,0.1
					c0,0,0.1-0.2,0.4-0.3C9.2,24.1,9.4,24.1,9.4,24.1z"/>
			</g>
			<g opacity="0.5">
				<path fill="#FFAB70" d="M9.8,24.5c0,0-0.1,0.1-0.2,0.1c-0.1,0.1-0.3,0.2-0.4,0.3c-0.3,0.2-0.6,0.4-0.6,0.4c0,0,0.2-0.3,0.5-0.5
					c0.2-0.1,0.3-0.2,0.4-0.2C9.7,24.6,9.8,24.5,9.8,24.5z"/>
			</g>
			<g opacity="0.5">
				<path fill="#FFAB70" d="M10.2,24.8c0,0-0.1,0-0.2,0.1c-0.1,0.1-0.3,0.2-0.4,0.3c-0.2,0.1-0.3,0.2-0.4,0.3
					c-0.1,0.1-0.2,0.2-0.2,0.2s0-0.1,0.1-0.2c0.1-0.1,0.2-0.2,0.4-0.4c0.2-0.1,0.3-0.2,0.5-0.2C10.1,24.8,10.2,24.8,10.2,24.8z"/>
			</g>
			<g opacity="0.5">
				<path fill="#FFAB70" d="M10.5,25c0,0-0.1,0-0.2,0.1c-0.1,0.1-0.2,0.1-0.4,0.2c-0.1,0.1-0.3,0.2-0.4,0.2
					c-0.1,0.1-0.2,0.1-0.2,0.1c0,0,0.2-0.3,0.5-0.4c0.1-0.1,0.3-0.1,0.4-0.2C10.4,25,10.5,25,10.5,25z"/>
			</g>
			<g opacity="0.5">
				<path fill="#FFAB70" d="M11,25c0,0-0.1,0.1-0.2,0.1c-0.1,0.1-0.3,0.2-0.4,0.3c-0.1,0.1-0.3,0.2-0.4,0.3
					c-0.1,0.1-0.2,0.1-0.2,0.1s0-0.1,0.1-0.2c0.1-0.1,0.2-0.2,0.4-0.3c0.1-0.1,0.3-0.2,0.4-0.2C10.9,25,11,25,11,25z"/>
			</g>
			<g opacity="0.5">
				<path fill="#FFAB70" d="M11.2,25.4c0,0-0.1,0.1-0.2,0.1c-0.1,0.1-0.3,0.2-0.5,0.3c-0.4,0.2-0.6,0.6-0.6,0.6c0,0,0-0.1,0.1-0.2
					c0.1-0.1,0.3-0.3,0.4-0.4c0.2-0.1,0.4-0.2,0.5-0.3C11.1,25.4,11.2,25.4,11.2,25.4z"/>
			</g>
			<g opacity="0.5">
				<path fill="#FFAB70" d="M11,25.8c0,0-0.1,0-0.1,0.1c-0.1,0.1-0.2,0.1-0.3,0.2c-0.1,0.1-0.2,0.1-0.3,0.2
					c-0.1,0.1-0.1,0.1-0.1,0.1c0,0,0.1-0.2,0.3-0.4C10.7,25.9,11,25.8,11,25.8z"/>
			</g>
			<line fill="none" stroke="#ED926D" stroke-width="0.4457" stroke-miterlimit="24" x1="1.8" y1="40.4" x2="2.2" y2="41"/>
			<g opacity="0.5">
				<path fill="#FFAB70" d="M12.1,40.7c-0.6,0.3-1.2,0.7-1.6,1.1c-0.2,0.2-0.4,0.5-0.6,0.7c-0.1,0.1-0.1,0.3-0.2,0.4
					c-0.1,0.1-0.1,0.3-0.1,0.4l0-0.1c0.2,0.5,0.3,1.1,0.3,1.6c-0.2-0.5-0.4-1-0.6-1.4l0,0l0,0c0-0.2,0-0.4,0.1-0.5
					c0-0.2,0.1-0.4,0.2-0.5c0.2-0.3,0.4-0.6,0.7-0.8C10.8,41,11.5,40.8,12.1,40.7z"/>
			</g>
			<g opacity="0.5">
				<path fill="#FFAB70" d="M14.5,40.4c-0.4,0.5-0.7,1-0.9,1.6c-0.1,0.3-0.2,0.6-0.2,0.9c-0.1,0.3-0.1,0.6-0.1,0.9
					c0,0.3,0,0.6,0.1,0.9c0,0.3,0.1,0.6,0.2,0.9c0.1,0.3,0.2,0.6,0.3,0.9c0.1,0.3,0.3,0.5,0.4,0.8l0,0.1l0,0.1
					c-0.2,0.4-0.3,0.9-0.4,1.3c-0.1,0.5,0,0.9,0.2,1.3c-0.3-0.4-0.4-0.9-0.4-1.4c0-0.5,0.1-1,0.2-1.4l0,0.2
					c-0.3-0.6-0.6-1.1-0.8-1.7c-0.1-0.3-0.2-0.6-0.2-0.9c-0.1-0.3,0-0.6,0-1c0-0.3,0.1-0.6,0.2-1c0.1-0.3,0.2-0.6,0.3-0.9
					C13.6,41.3,14,40.8,14.5,40.4z"/>
			</g>
			<g opacity="0.5">
				<path fill="#FFAB70" d="M18.8,39.9c-0.5,0.3-0.8,0.7-1.1,1.2c-0.2,0.5-0.3,1-0.4,1.5c0,0.5,0,1.1,0.1,1.6
					c0.1,0.3,0.1,0.5,0.2,0.8l0.2,0.8l0,0.1l0,0.1c-0.3,0.5-0.4,1.1-0.4,1.7c0,0.3,0.1,0.6,0.3,0.8c0.1,0.1,0.2,0.2,0.3,0.3
					c0.1,0.1,0.3,0.2,0.4,0.3C18.3,49,18.1,49,18,48.9c-0.1-0.1-0.3-0.2-0.4-0.3c-0.1-0.1-0.2-0.3-0.3-0.4c-0.1-0.2-0.1-0.3-0.2-0.5
					c-0.1-0.7,0-1.3,0.3-1.9l0,0.1l-0.2-0.8c-0.1-0.3-0.1-0.5-0.2-0.8c-0.1-0.6-0.1-1.1-0.1-1.7c0-0.6,0.2-1.1,0.5-1.6
					C17.8,40.5,18.3,40.1,18.8,39.9z"/>
			</g>
			<g opacity="0.5">
				<path fill="#FFAB70" d="M34.7,37.3c0.4,0.5,0.7,1,1,1.5c0.3,0.5,0.6,1,0.8,1.6l0,0.1l0,0.1c-0.1,0.3-0.3,0.6-0.4,0.9
					c-0.2,0.3-0.4,0.6-0.7,0.7c0.3-0.2,0.4-0.5,0.5-0.8c0.1-0.3,0.2-0.6,0.3-0.9l0,0.2c-0.3-0.5-0.6-1-0.9-1.6
					C35.1,38.4,34.9,37.9,34.7,37.3z"/>
			</g>
			<g opacity="0.5">
				<path fill="#FFAB70" d="M27.4,38.2c0.8,0,1.6,0.5,2.1,1.1c0.3,0.3,0.4,0.7,0.6,1.1c0.2,0.4,0.3,0.8,0.3,1.2
					c0.2,0.8,0.4,1.5,0.7,2.3c0.2,0.4,0.3,0.7,0.6,1c0.1,0.2,0.2,0.3,0.4,0.5c0.1,0.1,0.3,0.3,0.4,0.4l-0.2,0c0,0,0.1-0.1,0.2-0.1
					c0.1-0.1,0.1-0.1,0.2-0.2c0.1-0.2,0.1-0.4,0.2-0.6c0.1-0.4,0-0.9,0-1.3c-0.1-0.9-0.2-1.8-0.4-2.7c0.3,0.9,0.5,1.7,0.7,2.6
					c0.1,0.4,0.2,0.9,0.1,1.4c0,0.2-0.1,0.5-0.2,0.7c-0.1,0.1-0.1,0.2-0.2,0.3c-0.1,0.1-0.2,0.2-0.3,0.3l-0.1,0L32.2,46
					c-0.2-0.1-0.4-0.3-0.5-0.4c-0.1-0.2-0.3-0.3-0.4-0.5c-0.2-0.3-0.4-0.7-0.6-1.1c-0.3-0.8-0.5-1.6-0.7-2.4
					c-0.1-0.4-0.2-0.8-0.3-1.1c-0.1-0.4-0.3-0.7-0.5-1C28.8,38.8,28.2,38.3,27.4,38.2z"/>
			</g>
			<g opacity="0.5">
				<path fill="#FFAB70" d="M27.7,39.8c0,0,0.3,1.9,0.9,3.8c0.3,0.9,0.7,1.8,1.1,2.4c0.2,0.3,0.3,0.6,0.5,0.7
					c0.1,0.2,0.2,0.3,0.2,0.3L30,47.2c0,0-0.1-0.1-0.2-0.3c-0.1-0.2-0.3-0.5-0.5-0.8c-0.3-0.7-0.7-1.6-1-2.5
					C27.8,41.7,27.7,39.8,27.7,39.8z"/>
			</g>
			<g opacity="0.5">
				<path fill="#FFAB70" d="M33.2,39.9c0,0,0.2,0.2,0.4,0.7c0.2,0.4,0.4,1,0.5,1.7c0,0.3,0,0.7-0.1,0.9c-0.1,0.3-0.2,0.6-0.3,0.8
					c-0.2,0.4-0.5,0.7-0.5,0.7l-0.3-0.3c0,0,0.2-0.2,0.5-0.6c0.1-0.2,0.3-0.4,0.3-0.7c0.1-0.3,0.2-0.6,0.2-0.9
					c0-0.6-0.1-1.2-0.3-1.6C33.4,40.2,33.2,39.9,33.2,39.9z"/>
			</g>
			<g>
				<path fill="#ED926D" d="M34.1,33.3c0,0-0.2,0.4-0.4,1.1c-0.2,0.7-0.5,1.6-0.5,2.6c0,0.2,0,0.5,0,0.7c0,0.2,0.1,0.5,0.1,0.7
					c0.1,0.2,0.1,0.4,0.2,0.6c0.1,0.2,0.2,0.4,0.3,0.5c0.1,0.1,0.2,0.3,0.3,0.4c0.1,0.1,0.2,0.2,0.3,0.3c0.2,0.1,0.2,0.2,0.2,0.2
					s-0.1-0.1-0.3-0.2c-0.1-0.1-0.2-0.1-0.3-0.3c-0.1-0.1-0.2-0.2-0.3-0.4c-0.1-0.2-0.2-0.3-0.3-0.5c-0.1-0.2-0.1-0.4-0.2-0.6
					c0-0.2-0.1-0.5-0.1-0.7c0-0.2,0-0.5,0-0.7c0-1,0.2-1.9,0.5-2.6c0.2-0.7,0.4-1.2,0.4-1.2L34.1,33.3z"/>
			</g>
			<g>
				<path fill="#ED926D" d="M32.9,34.7c0,0-0.1,0.4-0.3,1c-0.1,0.6-0.2,1.5-0.1,2.3c0.1,0.4,0.2,0.8,0.4,1.2
					c0.1,0.2,0.2,0.3,0.3,0.5c0.1,0.1,0.2,0.3,0.4,0.3c0.1,0.1,0.3,0.2,0.4,0.2c0.1,0,0.2,0.1,0.3,0.1c0.2,0.1,0.3,0.1,0.3,0.1
					s-0.1,0-0.3-0.1c-0.1,0-0.2-0.1-0.3-0.1c-0.1-0.1-0.2-0.1-0.4-0.2c-0.2-0.1-0.3-0.2-0.4-0.3c-0.2-0.1-0.2-0.3-0.4-0.5
					c-0.2-0.4-0.4-0.8-0.4-1.2c-0.2-0.9-0.1-1.7,0-2.4c0.1-0.6,0.2-1.1,0.2-1.1L32.9,34.7z"/>
			</g>
			<path fill="#FFFFD6" d="M18.2,11.8c0,0,0.1,0.7-0.5,1.2c0,0,1.1-0.2,1.5,0.2c0,0,0.2-0.3,0.2-0.7C19.4,12.5,19.2,12,18.2,11.8z"
				/>
			<path fill="#FFFFD6" d="M22.3,12.7c0,0,0.3,0.6,0.1,1.3c0,0,0.3-0.9,1.4-0.2C23.8,13.9,23.6,13.1,22.3,12.7z"/>
			<path fill="#FFFFD6" d="M7.3,23.2c0,0-0.7,1.9,1.7,3.2c0,0-2.1-0.4-2.1-3.2"/>
			<path fill="none" d="M32.8,27.9c0,0-0.6,0.4-1,0.9c0,0,0-1.4-0.4-1.7c0,0,0.2-0.4-0.1-0.8c0,0-1.6,0.2-2.6,2.7
				c0,0-0.1,0.6,0.2,0.8c0,0-0.4,0.8-1.2,0.9c0,0-0.8,0.3-1.3,1.2"/>
			<path fill="none" d="M30.7,25.9c0,0,0.9-0.5,1.7,0.7"/>
			<path fill="none" d="M22.7,34.8c0,0-3.9,2-4.8,2.2"/>
			<path fill="none" d="M24.9,14.6c0,0,0,1.6-1,3.6"/>
			<path fill="none" d="M21.7,13.9c0,0-0.7,2.9-2.4,4.3"/>
			<path fill="none" d="M21.1,11.2c0,0,0.3-1.1,0.4-0.2"/>
			<g>
				<path fill="#ED926D" d="M31.4,27.3c0,0,0.1,0,0.2,0.2c0.1,0.1,0.2,0.3,0.2,0.6c0,0.2,0,0.4,0,0.6c0,0.2,0,0.3,0,0.3s0-0.1,0-0.3
					c0-0.2,0-0.4-0.1-0.6c0-0.2-0.1-0.4-0.1-0.5C31.5,27.3,31.4,27.3,31.4,27.3z"/>
			</g>
			<circle fill="#FFFFD6" cx="23.6" cy="24.8" r="0.1"/>
		</g>
	</g>
</g>
</svg>
